<?xml version="1.0" encoding="UTF-8"?>
<svg width="69px" height="69px" viewBox="0 0 69 69" version="1.1" xmlns="http://www.w3.org/2000/svg" xmlns:xlink="http://www.w3.org/1999/xlink">
    <title>8F6C1C19-A6A4-433D-A690-2EA80FF68E25</title>
    <g id="Page-1" stroke="none" stroke-width="1" fill="none" fill-rule="evenodd">
        <g id="Home---Desktop" transform="translate(-1081.000000, -2433.000000)">
            <g id="Group-4" transform="translate(978.000000, 2433.500000)">
                <g id="Group-2" transform="translate(103.000000, 0.000000)">
                    <g id="ausgaben-icon" transform="translate(0.500000, 0.000000)">
                        <circle id="Oval" fill="#2369E5" cx="34" cy="34" r="34"></circle>
                        <g id="receipt" transform="translate(18.000000, 16.000000)" fill="#FFFFFF" fill-rule="nonzero">
                            <path d="M24.1875,16.875 L7.3125,16.875 C7.003125,16.875 6.75,17.128125 6.75,17.4375 L6.75,18.5625 C6.75,18.871875 7.003125,19.125 7.3125,19.125 L24.1875,19.125 C24.496875,19.125 24.75,18.871875 24.75,18.5625 L24.75,17.4375 C24.75,17.128125 24.496875,16.875 24.1875,16.875 Z M24.1875,23.625 L7.3125,23.625 C7.003125,23.625 6.75,23.878125 6.75,24.1875 L6.75,25.3125 C6.75,25.621875 7.003125,25.875 7.3125,25.875 L24.1875,25.875 C24.496875,25.875 24.75,25.621875 24.75,25.3125 L24.75,24.1875 C24.75,23.878125 24.496875,23.625 24.1875,23.625 Z M29.3976562,0 C28.9898437,0 28.5679687,0.1265625 28.18125,0.40078125 L25.1226562,2.6015625 L22.4085937,0.646875 C21.8179687,0.225 21.1289062,0.00703125 20.4328125,0.00703125 C19.74375,0.00703125 19.0546875,0.21796875 18.4640625,0.646875 L15.75,2.6015625 L13.0359375,0.646875 C12.4453125,0.225 11.7492187,0.00703125 11.0601562,0.00703125 C10.3710938,0.00703125 9.68203125,0.21796875 9.09140625,0.646875 L6.37734375,2.6015625 L3.31875,0.40078125 C2.9390625,0.1265625 2.5171875,0 2.10234375,0 C1.0125,0.00703125 0,0.86484375 0,2.10234375 L0,33.9046875 C0,35.1210938 1.00546875,36 2.10234375,36 C2.51015625,36 2.93203125,35.8734375 3.31875,35.5992187 L6.37734375,33.3984375 L9.09140625,35.353125 C9.68203125,35.775 10.3710937,35.9929688 11.0671875,35.9929688 C11.75625,35.9929688 12.4453125,35.7820313 13.0359375,35.353125 L15.75,33.3984375 L18.4640625,35.353125 C19.0546875,35.775 19.7507812,35.9929688 20.4398437,35.9929688 C21.1289062,35.9929688 21.8179687,35.7820313 22.4085937,35.353125 L25.1226562,33.3984375 L28.18125,35.5992187 C28.5609375,35.8734375 28.9828125,36 29.3976562,36 C30.4875,36 31.4930054,35.1421875 31.4930054,33.9046875 L31.4930054,2.10234375 C31.5,0.87890625 30.4945312,0 29.3976562,0 Z M29.25,33.5953125 L26.4375,31.5703125 L25.1226563,30.6210938 L23.8078125,31.5703125 L21.09375,33.525 C20.896875,33.665625 20.671875,33.7359375 20.4398438,33.7359375 C20.2007813,33.7359375 19.9757812,33.6585938 19.7789063,33.5179687 L17.0648438,31.5703125 L15.75,30.6210938 L14.4351563,31.5703125 L11.7210938,33.525 C11.5242188,33.665625 11.2992188,33.7359375 11.0601563,33.7359375 C10.8210937,33.7359375 10.5960938,33.6585938 10.3992187,33.5179687 L7.68515625,31.5703125 L6.3703125,30.6210938 L5.0625,31.5703125 L2.25,33.6375 L2.25,2.4046875 L5.0625,4.4296875 L6.37734375,5.37890625 L7.6921875,4.4296875 L10.40625,2.475 C10.603125,2.334375 10.828125,2.2640625 11.0601563,2.2640625 C11.2992188,2.2640625 11.5242188,2.34140625 11.7210938,2.48203125 L14.4351563,4.4296875 L15.75,5.37890625 L17.0648438,4.4296875 L19.7789063,2.475 C19.9757813,2.334375 20.2007813,2.2640625 20.4398438,2.2640625 C20.6789062,2.2640625 20.9039063,2.34140625 21.1007812,2.48203125 L23.8148438,4.4296875 L25.1296875,5.37890625 L26.4375,4.4296875 L29.25,2.4046875 L29.25,33.5953125 Z M24.1875,10.125 L7.3125,10.125 C7.003125,10.125 6.75,10.378125 6.75,10.6875 L6.75,11.8125 C6.75,12.121875 7.003125,12.375 7.3125,12.375 L24.1875,12.375 C24.496875,12.375 24.75,12.121875 24.75,11.8125 L24.75,10.6875 C24.75,10.378125 24.496875,10.125 24.1875,10.125 Z" id="Shape"></path>
                        </g>
                    </g>
                </g>
            </g>
        </g>
    </g>
</svg>