<?xml version="1.0" encoding="UTF-8"?>
<svg width="69px" height="70px" viewBox="0 0 69 70" version="1.1" xmlns="http://www.w3.org/2000/svg" xmlns:xlink="http://www.w3.org/1999/xlink">
    <title>F9FFC5E6-A37C-43E8-A32E-31DC7D9906AF</title>
    <defs>
        <polygon id="path-1" points="0 7.3987009e-05 38.510978 7.3987009e-05 38.510978 51.348316 0 51.348316"></polygon>
    </defs>
    <g id="Page-1" stroke="none" stroke-width="1" fill="none" fill-rule="evenodd">
        <g id="Home---Desktop" transform="translate(-357.000000, -1388.000000)">
            <g id="Group-2" transform="translate(357.000000, 1388.000000)">
                <g id="belege-icon" transform="translate(0.000000, 0.500000)">
                    <circle id="Oval" fill="#FFD618" cx="34.5" cy="34.5" r="34.5"></circle>
                    <g id="Group-3" transform="translate(34.500000, 37.383123) rotate(-360.000000) translate(-34.500000, -37.383123) translate(15.000000, 11.383123)">
                        <mask id="mask-2" fill="white">
                            <use xlink:href="#path-1"></use>
                        </mask>
                        <g id="Clip-2"></g>
                        <path d="M30.7195792,37.6965877 C30.7195792,38.3227277 30.2069008,38.8354061 29.5802355,38.8354061 L9.07257381,38.8354061 C8.44643379,38.8354061 7.93323009,38.3227277 7.93323009,37.6965877 L7.93323009,8.08153024 C7.93323009,7.45539022 8.44643379,6.9358831 9.07257381,6.9358831 L21.6069306,6.9358831 L21.6069306,14.3460822 C21.6069306,15.2931715 22.3691195,16.0501076 23.3156835,16.0501076 L30.7195792,16.0501076 L30.7195792,37.6965877 Z M23.885618,6.97790592 C24.0847011,7.02780802 24.2627728,7.12761222 24.4124791,7.27731851 L30.3849725,13.2498119 C30.5341535,13.3989929 30.634483,13.5770646 30.6843851,13.776673 L23.885618,13.776673 L23.885618,6.97790592 Z M31.9933959,11.6340344 L26.0209026,5.66154107 C25.3800546,5.02069306 24.511758,4.65772095 23.6077421,4.65772095 L9.07257381,4.65772095 C7.18627446,4.66454965 5.65559322,6.19523089 5.65559322,8.08153024 L5.65559322,37.6965877 C5.65559322,39.5823617 7.18627446,41.1135683 9.07257381,41.1135683 L29.5802355,41.1135683 C31.4665348,41.1135683 32.9972161,39.5823617 32.9972161,37.6965877 L32.9972161,14.0540236 C32.9972161,13.150533 32.6347692,12.2748824 31.9933959,11.6340344 L31.9933959,11.6340344 Z M10.7823773,16.0501076 L18.7572581,16.0501076 C19.0713787,16.0501076 19.3266673,15.7953442 19.3266673,15.4801731 L19.3266673,14.3413546 C19.3266673,14.0261835 19.0713787,13.7714201 18.7572581,13.7714201 L10.7823773,13.7714201 C10.4672062,13.7714201 10.2124428,14.0261835 10.2124428,14.3413546 L10.2124428,15.4801731 C10.2124428,15.7953442 10.4672062,16.0501076 10.7823773,16.0501076 L10.7823773,16.0501076 Z M10.7823773,11.4927327 L18.7572581,11.4927327 C19.0713787,11.4927327 19.3266673,11.2384946 19.3266673,10.9233235 L19.3266673,9.78397975 C19.3266673,9.46985917 19.0713787,9.21457054 18.7572581,9.21457054 L10.7823773,9.21457054 C10.4672062,9.21457054 10.2124428,9.46985917 10.2124428,9.78397975 L10.2124428,10.9233235 C10.2124428,11.2384946 10.4672062,11.4927327 10.7823773,11.4927327 L10.7823773,11.4927327 Z M12.4911303,27.4424942 L26.161679,27.4424942 L26.161679,22.8856446 L12.4911303,22.8856446 L12.4911303,27.4424942 Z M10.2124428,21.7463009 L10.2124428,28.5813126 C10.2124428,29.2111296 10.7955094,29.7206563 11.514625,29.7206563 L27.1392349,29.7206563 C27.8583504,29.7206563 28.4408918,29.2111296 28.4408918,28.5813126 L28.4408918,21.7463009 C28.4408918,21.1170091 27.8583504,20.6069572 27.1392349,20.6069572 L11.514625,20.6069572 C10.7955094,20.6069572 10.2124428,21.1170091 10.2124428,21.7463009 L10.2124428,21.7463009 Z M27.8709573,34.2780312 L22.1742387,34.2780312 C21.8601181,34.2780312 21.6048294,34.5333199 21.6048294,34.8474404 L21.6048294,35.9867842 C21.6048294,36.30143 21.8601181,36.5561934 22.1742387,36.5561934 L27.8709573,36.5561934 C28.1856031,36.5561934 28.4403665,36.30143 28.4403665,35.9867842 L28.4403665,34.8474404 C28.4403665,34.5333199 28.1856031,34.2780312 27.8709573,34.2780312 L27.8709573,34.2780312 Z" id="Fill-1" fill="#00000F" mask="url(#mask-2)"></path>
                    </g>
                </g>
            </g>
        </g>
    </g>
</svg>