<?xml version="1.0" encoding="UTF-8"?>
<svg width="36px" height="36px" viewBox="0 0 36 36" version="1.1" xmlns="http://www.w3.org/2000/svg" xmlns:xlink="http://www.w3.org/1999/xlink">
    <title>DFE7A823-93B3-4DA4-A61C-74C2D276BDD7</title>
    <defs>
        <filter id="filter-1">
            <feColorMatrix in="SourceGraphic" type="matrix" values="0 0 0 0 0.137255 0 0 0 0 0.411765 0 0 0 0 0.898039 0 0 0 1.000000 0"></feColorMatrix>
        </filter>
    </defs>
    <g id="Page-1" stroke="none" stroke-width="1" fill="none" fill-rule="evenodd">
        <g id="facebook-logo" transform="translate(-1391.000000, -5917.000000)" filter="url(#filter-1)">
            <g transform="translate(1391.000000, 5917.000000)">
                <path d="M36,1.98482143 L36,34.0071429 C36,35.1080357 35.1080357,35.9919643 34.0151786,35.9919643 L24.8383929,35.9919643 L24.8383929,22.0580357 L29.5151786,22.0580357 L30.2142857,16.6258929 L24.8303571,16.6258929 L24.8303571,13.1544643 C24.8303571,11.5794643 25.2642857,10.5107143 27.5223214,10.5107143 L30.3991071,10.5107143 L30.3991071,5.64910714 C29.9008929,5.58482143 28.1973214,5.43214286 26.2044643,5.43214286 C22.0580357,5.43214286 19.2133929,7.96339286 19.2133929,12.6160714 L19.2133929,16.6258929 L14.5205357,16.6258929 L14.5205357,22.0580357 L19.2133929,22.0580357 L19.2133929,36 L1.98482143,36 C0.891964286,36 0,35.1080357 0,34.0151786 L0,1.98482143 C0,0.891964286 0.891964286,0 1.98482143,0 L34.0071429,0 C35.1080357,0 36,0.891964286 36,1.98482143 Z" id="Path" fill="#000000" fill-rule="nonzero"></path>
            </g>
        </g>
    </g>
</svg>