<?xml version="1.0" encoding="UTF-8"?>
<svg width="69px" height="69px" viewBox="0 0 69 69" version="1.1" xmlns="http://www.w3.org/2000/svg" xmlns:xlink="http://www.w3.org/1999/xlink">
    <title>6C48296D-A8F5-433D-B29F-69023AC0CE3E</title>
    <g id="Page-1" stroke="none" stroke-width="1" fill="none" fill-rule="evenodd">
        <g id="Home---Desktop" transform="translate(-1081.000000, -2201.000000)">
            <g id="Group-4" transform="translate(978.000000, 2201.500000)">
                <g id="Group-2" transform="translate(103.000000, 0.000000)">
                    <g id="fotografieren-icon" transform="translate(0.500000, 0.000000)">
                        <circle id="Oval" fill="#2369E5" cx="34" cy="34" r="34"></circle>
                        <g id="camera" transform="translate(13.000000, 16.000000)" fill="#FFFFFF" fill-rule="nonzero">
                            <path d="M26.0598214,2.57142857 C26.325,2.57142857 26.5660714,2.74017857 26.6625,2.98928571 L28.4383929,7.71428571 L37.2857143,7.71428571 C37.9928571,7.71428571 38.5714286,8.29285714 38.5714286,9 L38.5714286,32.1428571 C38.5714286,32.85 37.9928571,33.4285714 37.2857143,33.4285714 L3.85714286,33.4285714 C3.15,33.4285714 2.57142857,32.85 2.57142857,32.1428571 L2.57142857,9 C2.57142857,8.29285714 3.15,7.71428571 3.85714286,7.71428571 L12.7125,7.71428571 L14.3276786,3.40714286 C14.5125,2.90892857 14.9946429,2.57142857 15.5330357,2.57142857 L26.0598214,2.57142857 M26.0598214,0 L15.5330357,0 C13.9258929,0 12.4875,0.996428571 11.925,2.49910714 L10.9285714,5.14285714 L3.85714286,5.14285714 C1.72767857,5.14285714 0,6.87053571 0,9 L0,32.1428571 C0,34.2723214 1.72767857,36 3.85714286,36 L37.2857143,36 C39.4151786,36 41.1428571,34.2723214 41.1428571,32.1428571 L41.1428571,9 C41.1428571,6.87053571 39.4151786,5.14285714 37.2857143,5.14285714 L30.2142857,5.14285714 L29.0651786,2.08928571 C28.5991071,0.827678571 27.4017857,0 26.0598214,0 Z M20.5714286,30.2142857 C15.2517857,30.2142857 10.9285714,25.8910714 10.9285714,20.5714286 C10.9285714,15.2517857 15.2517857,10.9285714 20.5714286,10.9285714 C25.8910714,10.9285714 30.2142857,15.2517857 30.2142857,20.5714286 C30.2142857,25.8910714 25.8910714,30.2142857 20.5714286,30.2142857 Z M20.5714286,13.5 C16.6741071,13.5 13.5,16.6741071 13.5,20.5714286 C13.5,24.46875 16.6741071,27.6428571 20.5714286,27.6428571 C24.46875,27.6428571 27.6428571,24.46875 27.6428571,20.5714286 C27.6428571,16.6741071 24.46875,13.5 20.5714286,13.5 Z" id="Shape"></path>
                        </g>
                    </g>
                </g>
            </g>
        </g>
    </g>
</svg>