<?xml version="1.0" encoding="UTF-8"?>
<svg width="69px" height="68px" viewBox="0 0 69 68" version="1.1" xmlns="http://www.w3.org/2000/svg" xmlns:xlink="http://www.w3.org/1999/xlink">
    <title>344D5F5E-A23C-4130-9E9A-EBB107B59433</title>
    <g id="Page-1" stroke="none" stroke-width="1" fill="none" fill-rule="evenodd">
        <g id="Home---Desktop" transform="translate(-357.000000, -1773.000000)">
            <g id="Group-2" transform="translate(357.000000, 1773.000000)">
                <g id="geld-icon" transform="translate(0.500000, 0.000000)">
                    <circle id="Oval" fill="#FFD618" cx="34" cy="34" r="34"></circle>
                    <g id="Group-7" transform="translate(11.666667, 16.000000)" fill="#00000F">
                        <path d="M44.6152114,10.2606686 C44.6152114,8.39226857 43.0888114,6.88644 41.2137257,6.91421143 C39.4008686,6.94249714 37.9228114,8.56661143 37.9228114,10.3789543 L37.9228114,19.93644 L33.6012686,25.0463829 C33.1060114,25.6321543 32.19984,24.9280971 32.6529257,24.3006686 L34.6468114,21.5610686 C35.5812686,20.27124 35.5601829,18.4516971 34.4724686,17.2873543 C32.6945829,15.3772971 30.2476114,16.22124 29.2792114,17.5594114 L26.3230971,21.6304971 C25.1659543,23.1779829 24.5385257,25.0602686 24.5385257,26.9914114 L24.5385257,35.3567829 C24.5385257,35.6638114 24.7894971,35.9147829 25.0960114,35.9147829 L26.2114971,35.9147829 C26.5185257,35.9147829 26.7694971,35.6638114 26.7694971,35.3567829 L26.7694971,26.9914114 C26.7694971,25.5550114 27.2436686,24.1263257 28.12824,22.9480971 L31.0843543,18.8770114 C31.4536114,18.3683829 32.1509829,18.2701543 32.64624,18.6327257 C33.18984,19.0230686 33.2248114,19.7343257 32.8900114,20.1874114 L30.7567543,23.1291257 C30.7428686,23.1502114 30.7289829,23.1640971 30.7217829,23.1851829 C28.90224,25.9530686 33.0849257,29.2290686 35.6573829,26.1407829 L40.1609829,20.7382114 L40.1609829,10.3023257 C40.1609829,8.74815429 42.3919543,8.78981143 42.3919543,10.2534686 L42.3919543,22.13244 C42.3919543,22.3834114 42.3081257,22.6343829 42.1476686,22.8292971 L34.6884686,32.1502114 C34.0260686,32.9797543 33.6079543,34.1857543 33.4963543,35.3007257 C33.4618971,35.6355257 33.71904,35.9075829 34.0543543,35.9075829 L35.16984,35.9075829 C35.4485829,35.9075829 35.6923543,35.7054686 35.7273257,35.4267257 C35.8111543,34.7571257 36.04824,34.0180971 36.4313829,33.5439257 L43.8905829,24.2235257 C44.3647543,23.6310686 44.6224114,22.8925543 44.6224114,22.13244 L44.6152114,10.2606686 Z" id="Fill-1"></path>
                        <path d="M15.3366171,17.5661486 C14.3610171,16.2274629 11.9140457,15.3773486 10.1428457,17.2946057 C9.05564571,18.4656343 9.03456,20.2779771 9.96850286,21.5678057 L11.9623886,24.3074057 C12.4154743,24.9276343 11.5098171,25.6388914 11.01456,25.0536343 L6.69198857,19.9436914 L6.69198857,10.3862057 C6.69198857,8.57386286 5.21444571,6.94923429 3.40210286,6.92146286 C1.52650286,6.88649143 0.000102857143,8.39232 0.000102857143,10.26072 L0.000102857143,22.1396914 C0.000102857143,22.8992914 0.258274286,23.63832 0.732445714,24.2307771 L8.19113143,33.5511771 C8.56758857,34.0253486 8.81136,34.7710629 8.89518857,35.4334629 C8.93016,35.7122057 9.17444571,35.9148343 9.45318857,35.9148343 L10.5686743,35.9148343 C10.90296,35.9148343 11.1611314,35.6422629 11.1256457,35.3079771 C11.01456,34.1924914 10.6031314,32.9864914 9.93404571,32.1569486 L2.47484571,22.8365486 C2.31438857,22.64112 2.23107429,22.3906629 2.23107429,22.1396914 L2.23107429,10.26072 C2.23107429,8.79654857 4.46153143,8.75489143 4.46153143,10.3095771 L4.46153143,20.7454629 L8.96461714,26.1480343 C11.5370743,29.22912 15.71256,25.9592914 13.9007314,23.19192 C13.8868457,23.1708343 13.8724457,23.1574629 13.86576,23.1363771 L11.7325029,20.1941486 C11.4043886,19.7410629 11.4398743,19.03032 11.9767886,18.6399771 C12.4643314,18.2840914 13.1683886,18.37512 13.53816,18.8842629 L16.49376,22.9553486 C17.37936,24.1335771 17.8535314,25.5622629 17.8535314,26.9986629 L17.8535314,35.36352 C17.8535314,35.6705486 18.1039886,35.9210057 18.4110171,35.9210057 L19.5259886,35.9210057 C19.8330171,35.9210057 20.0834743,35.6705486 20.0834743,35.36352 L20.0834743,26.9986629 C20.0834743,25.06752 19.45656,23.19192 18.2994171,21.6444343 L15.3366171,17.5661486 Z" id="Fill-3"></path>
                        <path d="M27.5639143,17.2241486 L27.4188857,16.61472 C27.3736286,16.4234057 27.2558571,16.2614057 27.0882,16.1590629 C26.9195143,16.0562057 26.7199714,16.0248343 26.5291714,16.07112 C26.1444857,16.1636914 25.5402,16.2747771 24.8438571,16.2747771 C21.897,16.2747771 19.6022571,14.6414057 18.7773429,11.9866629 L24.6206571,11.9866629 C24.9724286,11.9866629 25.2758571,11.7362057 25.3432286,11.3906057 L25.4044286,11.0717486 C25.4460857,10.8557486 25.389,10.6346057 25.2491143,10.4648914 C25.1092286,10.2951771 24.9024857,10.1979771 24.6818571,10.1979771 L18.4039714,10.1979771 C18.3556286,9.49906286 18.3612857,8.79140571 18.4224857,8.16243429 L25.3082571,8.16243429 C25.6605429,8.16243429 25.9639714,7.91197714 26.0303143,7.56689143 L26.0920286,7.24803429 C26.1336857,7.03152 26.0766,6.81037714 25.9367143,6.64066286 C25.7963143,6.47094857 25.5895714,6.37323429 25.3694571,6.37323429 L18.8148857,6.37323429 C19.7426571,3.71849143 22.0137429,2.08512 24.8191714,2.08512 C25.3874571,2.08512 25.9176857,2.17049143 26.2627714,2.24249143 C26.6495143,2.32477714 27.0264857,2.08563429 27.1242,1.70352 L27.2805429,1.08689143 C27.3299143,0.891977143 27.2964857,0.682662857 27.189,0.512434286 C27.081,0.341177143 26.9112857,0.224434286 26.7127714,0.185348571 C26.2864286,0.101005714 25.6163143,0.000205714286 24.8438571,0.000205714286 C20.8848857,0.000205714286 17.5353429,2.55312 16.4486571,6.37323429 L15.5522571,6.37323429 C15.1464857,6.37323429 14.8168286,6.70340571 14.8168286,7.10866286 L14.8168286,7.42752 C14.8168286,7.83277714 15.1464857,8.16243429 15.5522571,8.16243429 L16.1375143,8.16243429 C16.0845429,8.78626286 16.0917429,9.63072 16.1236286,10.1979771 L15.5522571,10.1979771 C15.1464857,10.1979771 14.8168286,10.5276343 14.8168286,10.9328914 L14.8168286,11.2517486 C14.8168286,11.6570057 15.1464857,11.9866629 15.5522571,11.9866629 L16.3915714,11.9866629 C17.3481429,15.86592 20.6436857,18.3602057 24.8438571,18.3602057 C25.7562,18.3602057 26.5291714,18.22392 27.0172286,18.1107771 C27.2085429,18.06552 27.3705429,17.9487771 27.4739143,17.7816343 C27.5772857,17.6139771 27.6096857,17.4159771 27.5639143,17.2241486" id="Fill-5"></path>
                    </g>
                </g>
            </g>
        </g>
    </g>
</svg>