<?xml version="1.0" encoding="UTF-8"?>
<svg width="36px" height="37px" viewBox="0 0 36 37" version="1.1" xmlns="http://www.w3.org/2000/svg" xmlns:xlink="http://www.w3.org/1999/xlink">
    <title>36676D9D-9AE9-4816-98D0-F9583D63F86F</title>
    <defs>
        <filter id="filter-1">
            <feColorMatrix in="SourceGraphic" type="matrix" values="0 0 0 0 0.137255 0 0 0 0 0.411765 0 0 0 0 0.898039 0 0 0 1.000000 0"></feColorMatrix>
        </filter>
    </defs>
    <g id="Page-1" stroke="none" stroke-width="1" fill="none" fill-rule="evenodd">
        <g id="instagram-logo" transform="translate(-1391.000000, -5979.000000)" filter="url(#filter-1)">
            <g transform="translate(1391.000000, 5979.972973)">
                <path d="M17.5603202,8.58123157 C12.5988082,8.58123157 8.5968338,12.5832059 8.5968338,17.544718 C8.5968338,22.5062301 12.5988082,26.5082044 17.5603202,26.5082044 C22.5218323,26.5082044 26.5238067,22.5062301 26.5238067,17.544718 C26.5238067,12.5832059 22.5218323,8.58123157 17.5603202,8.58123157 Z M17.5603202,23.3721543 C14.3540601,23.3721543 11.7328839,20.7587793 11.7328839,17.544718 C11.7328839,14.3306567 14.346259,11.7172816 17.5603202,11.7172816 C20.7743815,11.7172816 23.3877566,14.3306567 23.3877566,17.544718 C23.3877566,20.7587793 20.7665804,23.3721543 17.5603202,23.3721543 L17.5603202,23.3721543 Z M28.9811593,8.21457894 C28.9811593,9.37694577 28.045025,10.305279 26.8904593,10.305279 C25.7280925,10.305279 24.7997592,9.36914465 24.7997592,8.21457894 C24.7997592,7.06001324 25.7358936,6.12387889 26.8904593,6.12387889 C28.045025,6.12387889 28.9811593,7.06001324 28.9811593,8.21457894 Z M34.9178114,10.3364835 C34.7851923,7.53588154 34.1455005,5.0551255 32.0938061,3.01123217 C30.0499127,0.967338831 27.5691567,0.327647023 24.7685547,0.187226871 C21.8821405,0.0234033588 13.2306989,0.0234033588 10.3442846,0.187226871 C7.55148378,0.319845904 5.07072774,0.959537711 3.01903329,3.00343105 C0.967338831,5.04732438 0.335448143,7.52808042 0.19502799,10.3286824 C0.0312044784,13.2150966 0.0312044784,21.8665383 0.19502799,24.7529525 C0.327647023,27.5535544 0.967338831,30.0343105 3.01903329,32.0782038 C5.07072774,34.1220972 7.54368266,34.761789 10.3442846,34.9022091 C13.2306989,35.0660326 21.8821405,35.0660326 24.7685547,34.9022091 C27.5691567,34.7695901 30.0499127,34.1298983 32.0938061,32.0782038 C34.1376994,30.0343105 34.7773912,27.5535544 34.9178114,24.7529525 C35.0816349,21.8665383 35.0816349,13.2228977 34.9178114,10.3364835 Z M31.1888762,27.849997 C30.5803889,29.3790164 29.4024198,30.5569855 27.8655992,31.1732739 C25.5642689,32.0860049 20.1034852,31.8753747 17.5603202,31.8753747 C15.0171552,31.8753747 9.5485704,32.0782038 7.25504123,31.1732739 C5.72602179,30.5647866 4.54805273,29.3868176 3.93176428,27.849997 C3.01903329,25.5486667 3.22966352,20.087883 3.22966352,17.544718 C3.22966352,15.001553 3.02683441,9.53296816 3.93176428,7.23943899 C4.54025161,5.71041955 5.71822067,4.53245049 7.25504123,3.91616204 C9.55637152,3.00343105 15.0171552,3.21406128 17.5603202,3.21406128 C20.1034852,3.21406128 25.5720701,3.01123217 27.8655992,3.91616204 C29.3946187,4.52464937 30.5725877,5.70261843 31.1888762,7.23943899 C32.1016072,9.54076928 31.8909769,15.001553 31.8909769,17.544718 C31.8909769,20.087883 32.1016072,25.5564678 31.1888762,27.849997 Z" id="Shape" fill="#000000" fill-rule="nonzero"></path>
            </g>
        </g>
    </g>
</svg>