<?xml version="1.0" encoding="UTF-8"?>
<svg width="69px" height="69px" viewBox="0 0 69 69" version="1.1" xmlns="http://www.w3.org/2000/svg" xmlns:xlink="http://www.w3.org/1999/xlink">
    <title>0B8F467B-C1A7-4788-A04E-8F7F29B12810</title>
    <g id="Page-1" stroke="none" stroke-width="1" fill="none" fill-rule="evenodd">
        <g id="Home---Desktop" transform="translate(-1081.000000, -2317.000000)">
            <g id="Group-4" transform="translate(961.000000, 2317.500000)">
                <g id="Group-2" transform="translate(120.000000, 0.000000)">
                    <g id="lohnersatzleistungen-icon" transform="translate(0.500000, 0.000000)">
                        <circle id="Oval" fill="#2369E5" cx="34" cy="34" r="34"></circle>
                        <g id="file-plus" transform="translate(19.267442, 13.500000)" fill="#FFFFFF" fill-rule="nonzero">
                            <path d="M29.5631579,7.9042885 L22.8576998,1.19883041 C22.1384016,0.479532164 21.1633528,0.0719298246 20.1483431,0.0719298246 L3.83625731,0.0719298246 C1.71832359,0.0799220273 0,1.79824561 0,3.91617934 L0,37.1637427 C0,39.2816764 1.71832359,41 3.83625731,41 L26.8538012,41 C28.9717349,41 30.6900585,39.2816764 30.6900585,37.1637427 L30.6900585,10.6216374 C30.6900585,9.60662768 30.2824561,8.62358674 29.5631579,7.9042885 Z M27.7569201,9.71851852 C27.9247563,9.88635478 28.0366472,10.0861598 28.0925926,10.3099415 L20.460039,10.3099415 L20.460039,2.67738791 C20.6838207,2.73333333 20.8836257,2.84522417 21.051462,3.01306043 L27.7569201,9.71851852 Z M26.8538012,38.4424951 L3.83625731,38.4424951 C3.13294347,38.4424951 2.55750487,37.8670565 2.55750487,37.1637427 L2.55750487,3.91617934 C2.55750487,3.2128655 3.13294347,2.6374269 3.83625731,2.6374269 L17.9025341,2.6374269 L17.9025341,10.9493177 C17.9025341,12.0122807 18.7576998,12.8674464 19.8206628,12.8674464 L28.1325536,12.8674464 L28.1325536,37.1637427 C28.1325536,37.8670565 27.557115,38.4424951 26.8538012,38.4424951 Z M23.0175439,24.0565302 L23.0175439,24.6959064 C23.0175439,25.2233918 22.5859649,25.6549708 22.0584795,25.6549708 L16.6237817,25.6549708 L16.6237817,31.0896686 C16.6237817,31.617154 16.1922027,32.0487329 15.6647173,32.0487329 L15.0253411,32.0487329 C14.4978558,32.0487329 14.0662768,31.617154 14.0662768,31.0896686 L14.0662768,25.6549708 L8.63157895,25.6549708 C8.10409357,25.6549708 7.67251462,25.2233918 7.67251462,24.6959064 L7.67251462,24.0565302 C7.67251462,23.5290448 8.10409357,23.0974659 8.63157895,23.0974659 L14.0662768,23.0974659 L14.0662768,17.662768 C14.0662768,17.1352827 14.4978558,16.7037037 15.0253411,16.7037037 L15.6647173,16.7037037 C16.1922027,16.7037037 16.6237817,17.1352827 16.6237817,17.662768 L16.6237817,23.0974659 L22.0584795,23.0974659 C22.5859649,23.0974659 23.0175439,23.5290448 23.0175439,24.0565302 Z" id="Shape"></path>
                        </g>
                    </g>
                </g>
            </g>
        </g>
    </g>
</svg>