<?xml version="1.0" encoding="UTF-8"?>
<svg width="69px" height="69px" viewBox="0 0 69 69" version="1.1" xmlns="http://www.w3.org/2000/svg" xmlns:xlink="http://www.w3.org/1999/xlink">
    <title>04FBC531-D3CD-45AE-8E3B-88971FB71836</title>
    <defs>
        <polygon id="path-1" points="0 -9.71428571e-05 33.7095429 -9.71428571e-05 33.7095429 33.7094457 0 33.7094457"></polygon>
    </defs>
    <g id="Page-1" stroke="none" stroke-width="1" fill="none" fill-rule="evenodd">
        <g id="Home---Desktop" transform="translate(-1081.000000, -2549.000000)">
            <g id="Group-4" transform="translate(978.000000, 2549.500000)">
                <g id="Group-2" transform="translate(103.000000, 0.000000)">
                    <g id="optimierung-icon" transform="translate(0.500000, 0.000000)">
                        <circle id="Oval" fill="#2369E5" cx="34" cy="34" r="34"></circle>
                        <g id="Group-3" transform="translate(17.000000, 17.000000)">
                            <mask id="mask-2" fill="white">
                                <use xlink:href="#path-1"></use>
                            </mask>
                            <g id="Clip-2"></g>
                            <path d="M25.1250286,13.1005886 L20.6083714,8.58393143 L27.0848857,2.10693143 L27.0868286,2.10693143 L31.603,6.62261714 L25.1250286,13.1005886 Z M6.62271429,31.6029029 L2.10702857,27.0867314 L19.1186857,10.0741029 L23.6353429,14.5902743 L6.62271429,31.6029029 Z M33.0926857,5.13293143 L28.577,0.61676 C28.1656,0.20536 27.6259714,-9.71428571e-05 27.0868286,-9.71428571e-05 C26.5481714,-9.71428571e-05 26.0085429,0.20536 25.5971429,0.61676 L0.617342857,25.5975314 C-0.205457143,26.4203314 -0.205457143,27.7545886 0.617342857,28.5764171 L5.13302857,33.0925886 C5.54442857,33.5039886 6.08405714,33.7094457 6.62271429,33.7094457 C7.16234286,33.7094457 7.70148571,33.5039886 8.11337143,33.0925886 L33.0926857,8.11230286 C33.9154857,7.28950286 33.9154857,5.95573143 33.0926857,5.13293143 L33.0926857,5.13293143 Z M28.4424571,25.2818171 C27.8605714,25.2818171 27.3894286,24.8106743 27.3894286,24.2287886 C27.3894286,23.6469029 27.8605714,23.1752743 28.4424571,23.1752743 C29.0243429,23.1752743 29.4959714,23.6469029 29.4959714,24.2287886 C29.4959714,24.8106743 29.0243429,25.2818171 28.4424571,25.2818171 L28.4424571,25.2818171 Z M28.4424571,18.9612171 L26.6875714,22.4729314 L23.1753714,24.2287886 L26.6875714,25.9846457 L28.4424571,29.4958743 L30.1978286,25.9846457 L33.7100286,24.2287886 L30.1978286,22.4729314 L28.4424571,18.9612171 Z M5.26757143,4.21347429 C5.84945714,4.21347429 6.3206,4.68510286 6.3206,5.26698857 C6.3206,5.84887429 5.84945714,6.32050286 5.26757143,6.32050286 C4.6852,6.32050286 4.21405714,5.84887429 4.21405714,5.26698857 C4.21405714,4.68510286 4.6852,4.21347429 5.26757143,4.21347429 L5.26757143,4.21347429 Z M5.26757143,10.5340743 L7.02245714,7.02284571 L10.5346571,5.26698857 L7.02245714,3.51113143 L5.26757143,-9.71428571e-05 L3.5122,3.51113143 L0,5.26698857 L3.5122,7.02284571 L5.26757143,10.5340743 Z M14.7482286,6.32050286 L15.8017429,4.21347429 L17.9087714,3.15996 L15.8017429,2.10693143 L14.7482286,-9.71428571e-05 L13.6947143,2.10693143 L11.5881714,3.15996 L13.6947143,4.21347429 L14.7482286,6.32050286 Z" id="Fill-1" fill="#FFFFFF" mask="url(#mask-2)"></path>
                        </g>
                    </g>
                </g>
            </g>
        </g>
    </g>
</svg>