<?xml version="1.0" encoding="UTF-8"?>
<svg width="1548px" height="689px" viewBox="0 0 1548 689" version="1.1" xmlns="http://www.w3.org/2000/svg" xmlns:xlink="http://www.w3.org/1999/xlink">
    <title>D5302CB3-E2E3-4FF2-A5CC-719189BE079B</title>
    <defs>
        <polygon id="path-1" points="0.00156104264 0 273.904511 0 273.904511 304.504511 0.00156104264 304.504511"></polygon>
        <filter id="filter-3">
            <feColorMatrix in="SourceGraphic" type="matrix" values="0 0 0 0 1.000000 0 0 0 0 0.839000 0 0 0 0 0.094000 0 0 0 1.000000 0"></feColorMatrix>
        </filter>
        <polygon id="path-4" points="0 0.134411949 5.59188884 0.134411949 5.59188884 5.7275042 0 5.7275042"></polygon>
        <polygon id="path-6" points="0 0.575601583 5.59188884 0.575601583 5.59188884 6.16869384 0 6.16869384"></polygon>
        <polygon id="path-8" points="0 0.0909965191 5.59188884 0.0909965191 5.59188884 5.68408877 0 5.68408877"></polygon>
        <polygon id="path-10" points="0 0.532186153 5.59188884 0.532186153 5.59188884 6.12527841 0 6.12527841"></polygon>
        <polygon id="path-12" points="0 0.0476736596 5.59188884 0.0476736596 5.59188884 5.64076591 0 5.64076591"></polygon>
        <polygon id="path-14" points="0 0.488770723 5.59188884 0.488770723 5.59188884 6.08186298 0 6.08186298"></polygon>
        <polygon id="path-16" points="0 0.00425822979 5.59188884 0.00425822979 5.59188884 5.59735049 0 5.59735049"></polygon>
        <polygon id="path-18" points="0 0.446280996 5.59188884 0.446280996 5.59188884 6.03937325 0 6.03937325"></polygon>
        <polygon id="path-20" points="0 0.88747063 5.59188884 0.88747063 5.59188884 6.47991489 0 6.47991489"></polygon>
        <polygon id="path-22" points="0.650676026 0.88747063 6.24284258 0.88747063 6.24284258 6.47991489 0.650676026 6.47991489"></polygon>
        <polygon id="path-24" points="0.374909362 0.88747063 5.96707591 0.88747063 5.96707591 6.47991489 0.374909362 6.47991489"></polygon>
        <polygon id="path-26" points="0.1000684 0.88747063 5.69223495 0.88747063 5.69223495 6.47991489 0.1000684 6.47991489"></polygon>
        <polygon id="path-28" points="0.750096434 0.88747063 6.34226299 0.88747063 6.34226299 6.47991489 0.750096434 6.47991489"></polygon>
        <polygon id="path-30" points="0.47432977 0.88747063 6.06649632 0.88747063 6.06649632 6.47991489 0.47432977 6.47991489"></polygon>
        <polygon id="path-32" points="0.199581379 0.88747063 5.79174793 0.88747063 5.79174793 6.47991489 0.199581379 6.47991489"></polygon>
        <polygon id="path-34" points="0.849516843 0.88747063 6.4416834 0.88747063 6.4416834 6.47991489 0.849516843 6.47991489"></polygon>
        <polygon id="path-36" points="0.574675881 0.88747063 6.16684243 0.88747063 6.16684243 6.47991489 0.574675881 6.47991489"></polygon>
        <polygon id="path-38" points="0 0.134411949 5.59188884 0.134411949 5.59188884 5.7275042 0 5.7275042"></polygon>
        <polygon id="path-40" points="0 0.575601583 5.59188884 0.575601583 5.59188884 6.16869384 0 6.16869384"></polygon>
        <polygon id="path-42" points="0 0.0909965191 5.59188884 0.0909965191 5.59188884 5.68408877 0 5.68408877"></polygon>
        <polygon id="path-44" points="0 0.532186153 5.59188884 0.532186153 5.59188884 6.12527841 0 6.12527841"></polygon>
        <polygon id="path-46" points="0 0.0476736596 5.59188884 0.0476736596 5.59188884 5.64076591 0 5.64076591"></polygon>
        <polygon id="path-48" points="0 0.488770723 5.59188884 0.488770723 5.59188884 6.08186298 0 6.08186298"></polygon>
        <polygon id="path-50" points="0 0.00425822979 5.59188884 0.00425822979 5.59188884 5.59735049 0 5.59735049"></polygon>
        <polygon id="path-52" points="0 0.446280996 5.59188884 0.446280996 5.59188884 6.03937325 0 6.03937325"></polygon>
        <polygon id="path-54" points="0 0.88747063 5.59188884 0.88747063 5.59188884 6.47991489 0 6.47991489"></polygon>
        <polygon id="path-56" points="0.650676026 0.88747063 6.24284258 0.88747063 6.24284258 6.47991489 0.650676026 6.47991489"></polygon>
        <polygon id="path-58" points="0.374909362 0.88747063 5.96707591 0.88747063 5.96707591 6.47991489 0.374909362 6.47991489"></polygon>
        <polygon id="path-60" points="0.1000684 0.88747063 5.69223495 0.88747063 5.69223495 6.47991489 0.1000684 6.47991489"></polygon>
        <polygon id="path-62" points="0.750096434 0.88747063 6.34226299 0.88747063 6.34226299 6.47991489 0.750096434 6.47991489"></polygon>
        <polygon id="path-64" points="0.47432977 0.88747063 6.06649632 0.88747063 6.06649632 6.47991489 0.47432977 6.47991489"></polygon>
        <polygon id="path-66" points="0.199581379 0.88747063 5.79174793 0.88747063 5.79174793 6.47991489 0.199581379 6.47991489"></polygon>
        <polygon id="path-68" points="0.849516843 0.88747063 6.4416834 0.88747063 6.4416834 6.47991489 0.849516843 6.47991489"></polygon>
        <polygon id="path-70" points="0.574675881 0.88747063 6.16684243 0.88747063 6.16684243 6.47991489 0.574675881 6.47991489"></polygon>
    </defs>
    <g id="Page-1" stroke="none" stroke-width="1" fill="none" fill-rule="evenodd">
        <g id="Home---Desktop" transform="translate(-203.000000, -3177.000000)">
            <g id="preis-bg" transform="translate(203.000000, 3177.617528)">
                <g id="Group-3" opacity="0.116275">
                    <mask id="mask-2" fill="white">
                        <use xlink:href="#path-1"></use>
                    </mask>
                    <g id="Clip-2"></g>
                    <path d="M161.397744,277.525665 C169.788586,277.171349 179.693323,271.286026 191.125759,259.878898 C202.548992,248.464868 209.952812,239.611574 213.330316,233.296011 C219.238647,227.445198 226.665474,217.538161 235.603895,203.563394 C244.533113,189.595529 248.860827,178.977559 248.552526,171.700281 C248.527218,171.143499 248.235023,170.874311 247.671338,170.897319 C244.029248,171.051469 235.942105,175.109995 223.393805,183.065995 C210.836301,191.019695 201.511353,199.191965 195.430466,207.575905 C187.094842,216.056477 179.939504,225.749544 173.964451,236.643605 C163.811233,255.010507 158.87612,267.549605 159.159113,274.260898 C159.253444,276.499529 159.996586,277.585484 161.397744,277.525665 M239.574992,148.331544 C241.024466,149.534838 242.310586,150.179048 243.433353,150.273379 C244.55612,150.36771 245.998692,149.741905 247.779474,148.407469 C249.534947,147.075334 251.946135,146.272371 255.029143,146.000883 C258.089143,145.731695 261.393023,147.344522 264.892466,150.839364 C269.521579,154.283589 271.999489,159.713364 272.312391,167.126386 C272.627594,174.54171 269.204075,186.521725 262.069444,203.073334 C254.921008,219.629544 247.116857,233.972432 238.663895,246.097394 C208.609173,284.082808 182.251759,303.547168 159.598556,304.506582 C144.399789,302.900657 134.520361,298.000056 129.974075,289.786371 C127.834376,285.670326 126.635684,280.403905 126.361895,273.966402 C125.58194,255.505168 135.277308,233.026823 155.452602,206.538266 C175.623293,180.040507 201.538962,160.09989 233.199609,146.714116 C235.995023,146.594477 238.111714,147.135153 239.574992,148.331544 M47.5542406,139.855574 C55.9381805,139.501259 65.8429173,133.615935 77.2776541,122.206507 C88.703188,110.792477 96.1047068,101.939183 99.4799098,95.6236195 C105.390541,89.7751083 112.82197,79.8657699 121.75809,65.8933038 C130.69191,51.9231383 135.012722,41.3051684 134.704421,34.030191 C134.683714,33.4711083 134.389218,33.2019203 133.825534,33.2249278 C130.190346,33.3790782 122.096301,37.4399053 109.543398,45.3936045 C96.992797,53.3496045 87.6655489,61.5218752 81.5800602,69.9035143 C73.2490376,78.3863865 65.9579549,88.2198 59.7137143,99.4129579 C49.8250827,117.478462 45.0257143,129.872612 45.3087068,136.590808 C45.4030376,138.829439 46.1484812,139.913093 47.5542406,139.855574 M125.729188,10.6614541 C127.180962,11.8624466 128.467083,12.5089579 129.594451,12.6032887 C130.714917,12.6976195 132.159789,12.071815 133.931368,10.7373789 C135.686842,9.40294286 138.107233,8.59998045 141.185639,8.33079248 C144.250241,8.05930376 147.547218,9.67213083 151.053564,13.1669729 C155.678075,16.6134992 158.153684,22.0432737 158.468887,29.4539955 C158.781789,36.8693188 155.358271,48.8493338 148.221338,65.4032436 C141.075203,81.9571534 133.268752,96.3000406 124.81809,108.425003 C94.7633684,146.412717 68.4082556,165.874777 45.7527519,166.834191 C30.553985,165.235168 20.8218045,160.463409 16.5631128,152.514311 C14.1358195,148.140582 12.7898797,142.731514 12.5160902,136.296311 C11.7361353,117.832777 21.4269023,95.3567323 41.6090977,68.8658752 C61.7774887,42.3681158 87.6954586,22.4298 119.353805,9.04172481 C122.149218,8.92438647 124.270511,9.46276241 125.729188,10.6614541 M252.226827,0.478326316 C252.779008,0.179228571 253.193143,0.0135744361 253.476135,-0.000385958085 C256.260045,-0.115267669 262.469774,3.97086767 272.068511,12.2443714 C273.207383,12.7620406 273.821684,14.0021459 273.904511,15.9508827 C273.800977,20.1612586 255.35815,44.480206 218.564526,88.9100256 C181.782406,133.335244 142.216376,178.448386 99.8802406,224.231048 C57.5349023,270.01371 30.3262105,295.825845 18.2495639,301.660552 C16.0822556,303.42983 13.7446917,304.368537 11.2207669,304.476672 C8.70834586,304.582507 6.21433083,303.774943 3.76403008,302.060883 C1.30912782,300.349123 0.057518797,298.855935 0.00690225564,297.597424 C-0.0483157895,296.341214 0.324406015,295.271364 1.13427068,294.397078 C18.5509624,275.728777 59.5365564,227.824823 124.088752,150.701319 C188.631744,73.5709128 223.554857,31.3935293 228.848887,24.1645669 C237.442195,8.67130376 245.237143,0.775123308 252.226827,0.478326316" id="Fill-1" fill="#2369E5" mask="url(#mask-2)"></path>
                </g>
                <g filter="url(#filter-3)" id="Group-182" opacity="0.663574219">
                    <g transform="translate(155.000000, 537.882472) rotate(-330.000000) translate(-155.000000, -537.882472) translate(45.500000, 428.882472)">
                        <g id="Group-3" transform="translate(0.000000, 0.791475)">
                            <mask id="mask-5" fill="white">
                                <use xlink:href="#path-4"></use>
                            </mask>
                            <g id="Clip-2"></g>
                            <path d="M5.59188884,2.93095808 C5.59188884,4.47502923 4.33941386,5.7275042 2.79534271,5.7275042 C1.25219727,5.7275042 -0.000277710638,4.47502923 -0.000277710638,2.93095808 C-0.000277710638,1.38596123 1.25219727,0.134411949 2.79534271,0.134411949 C4.33941386,0.134411949 5.59188884,1.38596123 5.59188884,2.93095808" id="Fill-1" fill="#2369E5" mask="url(#mask-5)"></path>
                        </g>
                        <path d="M32.1625022,3.7224334 C32.1625022,5.26650454 30.9100272,6.51897952 29.365956,6.51897952 C27.8218849,6.51897952 26.5703356,5.26650454 26.5703356,3.7224334 C26.5703356,2.17743654 27.8218849,0.925887268 29.365956,0.925887268 C30.9100272,0.925887268 32.1625022,2.17743654 32.1625022,3.7224334" id="Fill-4" fill="#2369E5"></path>
                        <path d="M58.7320972,3.7224334 C58.7320972,5.26650454 57.4796222,6.51897952 55.9355511,6.51897952 C54.3924056,6.51897952 53.1399306,5.26650454 53.1399306,3.7224334 C53.1399306,2.17743654 54.3924056,0.925887268 55.9355511,0.925887268 C57.4796222,0.925887268 58.7320972,2.17743654 58.7320972,3.7224334" id="Fill-6" fill="#2369E5"></path>
                        <path d="M85.3026179,3.7224334 C85.3026179,5.26650454 84.050143,6.51897952 82.5060718,6.51897952 C80.9620007,6.51897952 79.7104514,5.26650454 79.7104514,3.7224334 C79.7104514,2.17743654 80.9620007,0.925887268 82.5060718,0.925887268 C84.050143,0.925887268 85.3026179,2.17743654 85.3026179,3.7224334" id="Fill-8" fill="#2369E5"></path>
                        <path d="M111.872306,3.7224334 C111.872306,5.26650454 110.619831,6.51897952 109.075759,6.51897952 C107.532614,6.51897952 106.280139,5.26650454 106.280139,3.7224334 C106.280139,2.17743654 107.532614,0.925887268 109.075759,0.925887268 C110.619831,0.925887268 111.872306,2.17743654 111.872306,3.7224334" id="Fill-10" fill="#2369E5"></path>
                        <path d="M138.441901,3.7224334 C138.441901,5.26650454 137.190351,6.51897952 135.645354,6.51897952 C134.102209,6.51897952 132.849734,5.26650454 132.849734,3.7224334 C132.849734,2.17743654 134.102209,0.925887268 135.645354,0.925887268 C137.190351,0.925887268 138.441901,2.17743654 138.441901,3.7224334" id="Fill-12" fill="#2369E5"></path>
                        <path d="M165.012514,3.7224334 C165.012514,5.26650454 163.760039,6.51897952 162.215968,6.51897952 C160.672822,6.51897952 159.420347,5.26650454 159.420347,3.7224334 C159.420347,2.17743654 160.672822,0.925887268 162.215968,0.925887268 C163.760039,0.925887268 165.012514,2.17743654 165.012514,3.7224334" id="Fill-14" fill="#2369E5"></path>
                        <path d="M191.582109,3.7224334 C191.582109,5.26650454 190.329634,6.51897952 188.785563,6.51897952 C187.242417,6.51897952 185.989942,5.26650454 185.989942,3.7224334 C185.989942,2.17743654 187.242417,0.925887268 188.785563,0.925887268 C190.329634,0.925887268 191.582109,2.17743654 191.582109,3.7224334" id="Fill-16" fill="#2369E5"></path>
                        <path d="M218.15263,3.7224334 C218.15263,5.26650454 216.900155,6.51897952 215.356084,6.51897952 C213.812012,6.51897952 212.560463,5.26650454 212.560463,3.7224334 C212.560463,2.17743654 213.812012,0.925887268 215.356084,0.925887268 C216.900155,0.925887268 218.15263,2.17743654 218.15263,3.7224334" id="Fill-18" fill="#2369E5"></path>
                        <g id="Group-22" transform="translate(0.000000, 26.711135)">
                            <mask id="mask-7" fill="white">
                                <use xlink:href="#path-6"></use>
                            </mask>
                            <g id="Clip-21"></g>
                            <path d="M5.59188884,3.37214771 C5.59188884,4.91621886 4.33941386,6.16869384 2.79534271,6.16869384 C1.25219727,6.16869384 -0.000277710638,4.91621886 -0.000277710638,3.37214771 C-0.000277710638,1.82807656 1.25219727,0.575601583 2.79534271,0.575601583 C4.33941386,0.575601583 5.59188884,1.82807656 5.59188884,3.37214771" id="Fill-20" fill="#2369E5" mask="url(#mask-7)"></path>
                        </g>
                        <path d="M32.1625022,30.0832826 C32.1625022,31.6273538 30.9100272,32.8798287 29.365956,32.8798287 C27.8218849,32.8798287 26.5703356,31.6273538 26.5703356,30.0832826 C26.5703356,28.5392115 27.8218849,27.2867365 29.365956,27.2867365 C30.9100272,27.2867365 32.1625022,28.5392115 32.1625022,30.0832826" id="Fill-23" fill="#2369E5"></path>
                        <path d="M58.7320972,30.0832826 C58.7320972,31.6273538 57.4796222,32.8798287 55.9355511,32.8798287 C54.3924056,32.8798287 53.1399306,31.6273538 53.1399306,30.0832826 C53.1399306,28.5392115 54.3924056,27.2867365 55.9355511,27.2867365 C57.4796222,27.2867365 58.7320972,28.5392115 58.7320972,30.0832826" id="Fill-25" fill="#2369E5"></path>
                        <path d="M85.3026179,30.0832826 C85.3026179,31.6273538 84.050143,32.8798287 82.5060718,32.8798287 C80.9620007,32.8798287 79.7104514,31.6273538 79.7104514,30.0832826 C79.7104514,28.5392115 80.9620007,27.2867365 82.5060718,27.2867365 C84.050143,27.2867365 85.3026179,28.5392115 85.3026179,30.0832826" id="Fill-27" fill="#2369E5"></path>
                        <path d="M111.872306,30.0832826 C111.872306,31.6273538 110.619831,32.8798287 109.075759,32.8798287 C107.532614,32.8798287 106.280139,31.6273538 106.280139,30.0832826 C106.280139,28.5392115 107.532614,27.2867365 109.075759,27.2867365 C110.619831,27.2867365 111.872306,28.5392115 111.872306,30.0832826" id="Fill-29" fill="#2369E5"></path>
                        <path d="M138.441901,30.0832826 C138.441901,31.6273538 137.190351,32.8798287 135.645354,32.8798287 C134.102209,32.8798287 132.849734,31.6273538 132.849734,30.0832826 C132.849734,28.5392115 134.102209,27.2867365 135.645354,27.2867365 C137.190351,27.2867365 138.441901,28.5392115 138.441901,30.0832826" id="Fill-31" fill="#2369E5"></path>
                        <path d="M165.012514,30.0832826 C165.012514,31.6273538 163.760039,32.8798287 162.215968,32.8798287 C160.672822,32.8798287 159.420347,31.6273538 159.420347,30.0832826 C159.420347,28.5392115 160.672822,27.2867365 162.215968,27.2867365 C163.760039,27.2867365 165.012514,28.5392115 165.012514,30.0832826" id="Fill-33" fill="#2369E5"></path>
                        <path d="M191.582109,30.0832826 C191.582109,31.6273538 190.329634,32.8798287 188.785563,32.8798287 C187.242417,32.8798287 185.989942,31.6273538 185.989942,30.0832826 C185.989942,28.5392115 187.242417,27.2867365 188.785563,27.2867365 C190.329634,27.2867365 191.582109,28.5392115 191.582109,30.0832826" id="Fill-35" fill="#2369E5"></path>
                        <path d="M218.15263,30.0832826 C218.15263,31.6273538 216.900155,32.8798287 215.356084,32.8798287 C213.812012,32.8798287 212.560463,31.6273538 212.560463,30.0832826 C212.560463,28.5392115 213.812012,27.2867365 215.356084,27.2867365 C216.900155,27.2867365 218.15263,28.5392115 218.15263,30.0832826" id="Fill-37" fill="#2369E5"></path>
                        <g id="Group-41" transform="translate(0.000000, 53.556497)">
                            <mask id="mask-9" fill="white">
                                <use xlink:href="#path-8"></use>
                            </mask>
                            <g id="Clip-40"></g>
                            <path d="M5.59188884,2.88754265 C5.59188884,4.4316138 4.33941386,5.68408877 2.79534271,5.68408877 C1.25219727,5.68408877 -0.000277710638,4.4316138 -0.000277710638,2.88754265 C-0.000277710638,1.3434715 1.25219727,0.0909965191 2.79534271,0.0909965191 C4.33941386,0.0909965191 5.59188884,1.3434715 5.59188884,2.88754265" id="Fill-39" fill="#2369E5" mask="url(#mask-9)"></path>
                        </g>
                        <path d="M32.1625022,56.4440392 C32.1625022,57.9881104 30.9100272,59.2405854 29.365956,59.2405854 C27.8218849,59.2405854 26.5703356,57.9881104 26.5703356,56.4440392 C26.5703356,54.8999681 27.8218849,53.6474931 29.365956,53.6474931 C30.9100272,53.6474931 32.1625022,54.8999681 32.1625022,56.4440392" id="Fill-42" fill="#2369E5"></path>
                        <path d="M58.7320972,56.4440392 C58.7320972,57.9881104 57.4796222,59.2405854 55.9355511,59.2405854 C54.3924056,59.2405854 53.1399306,57.9881104 53.1399306,56.4440392 C53.1399306,54.8999681 54.3924056,53.6474931 55.9355511,53.6474931 C57.4796222,53.6474931 58.7320972,54.8999681 58.7320972,56.4440392" id="Fill-44" fill="#2369E5"></path>
                        <path d="M85.3026179,56.4440392 C85.3026179,57.9881104 84.050143,59.2405854 82.5060718,59.2405854 C80.9620007,59.2405854 79.7104514,57.9881104 79.7104514,56.4440392 C79.7104514,54.8999681 80.9620007,53.6474931 82.5060718,53.6474931 C84.050143,53.6474931 85.3026179,54.8999681 85.3026179,56.4440392" id="Fill-46" fill="#2369E5"></path>
                        <path d="M111.872306,56.4440392 C111.872306,57.9881104 110.619831,59.2405854 109.075759,59.2405854 C107.532614,59.2405854 106.280139,57.9881104 106.280139,56.4440392 C106.280139,54.8999681 107.532614,53.6474931 109.075759,53.6474931 C110.619831,53.6474931 111.872306,54.8999681 111.872306,56.4440392" id="Fill-48" fill="#2369E5"></path>
                        <path d="M138.441901,56.4440392 C138.441901,57.9881104 137.190351,59.2405854 135.645354,59.2405854 C134.102209,59.2405854 132.849734,57.9881104 132.849734,56.4440392 C132.849734,54.8999681 134.102209,53.6474931 135.645354,53.6474931 C137.190351,53.6474931 138.441901,54.8999681 138.441901,56.4440392" id="Fill-50" fill="#2369E5"></path>
                        <path d="M165.012514,56.4440392 C165.012514,57.9881104 163.760039,59.2405854 162.215968,59.2405854 C160.672822,59.2405854 159.420347,57.9881104 159.420347,56.4440392 C159.420347,54.8999681 160.672822,53.6474931 162.215968,53.6474931 C163.760039,53.6474931 165.012514,54.8999681 165.012514,56.4440392" id="Fill-52" fill="#2369E5"></path>
                        <path d="M191.582109,56.4440392 C191.582109,57.9881104 190.329634,59.2405854 188.785563,59.2405854 C187.242417,59.2405854 185.989942,57.9881104 185.989942,56.4440392 C185.989942,54.8999681 187.242417,53.6474931 188.785563,53.6474931 C190.329634,53.6474931 191.582109,54.8999681 191.582109,56.4440392" id="Fill-54" fill="#2369E5"></path>
                        <path d="M218.15263,56.4440392 C218.15263,57.9881104 216.900155,59.2405854 215.356084,59.2405854 C213.812012,59.2405854 212.560463,57.9881104 212.560463,56.4440392 C212.560463,54.8999681 213.812012,53.6474931 215.356084,53.6474931 C216.900155,53.6474931 218.15263,54.8999681 218.15263,56.4440392" id="Fill-56" fill="#2369E5"></path>
                        <g id="Group-60" transform="translate(0.000000, 79.476156)">
                            <mask id="mask-11" fill="white">
                                <use xlink:href="#path-10"></use>
                            </mask>
                            <g id="Clip-59"></g>
                            <path d="M5.59188884,3.32873228 C5.59188884,4.87280343 4.33941386,6.12527841 2.79534271,6.12527841 C1.25219727,6.12527841 -0.000277710638,4.87280343 -0.000277710638,3.32873228 C-0.000277710638,1.78466113 1.25219727,0.532186153 2.79534271,0.532186153 C4.33941386,0.532186153 5.59188884,1.78466113 5.59188884,3.32873228" id="Fill-58" fill="#2369E5" mask="url(#mask-11)"></path>
                        </g>
                        <path d="M32.1625022,82.8048885 C32.1625022,84.3489596 30.9100272,85.6014346 29.365956,85.6014346 C27.8218849,85.6014346 26.5703356,84.3489596 26.5703356,82.8048885 C26.5703356,81.2608173 27.8218849,80.0083423 29.365956,80.0083423 C30.9100272,80.0083423 32.1625022,81.2608173 32.1625022,82.8048885" id="Fill-61" fill="#2369E5"></path>
                        <path d="M58.7320972,82.8048885 C58.7320972,84.3489596 57.4796222,85.6014346 55.9355511,85.6014346 C54.3924056,85.6014346 53.1399306,84.3489596 53.1399306,82.8048885 C53.1399306,81.2608173 54.3924056,80.0083423 55.9355511,80.0083423 C57.4796222,80.0083423 58.7320972,81.2608173 58.7320972,82.8048885" id="Fill-63" fill="#2369E5"></path>
                        <path d="M85.3026179,82.8048885 C85.3026179,84.3489596 84.050143,85.6014346 82.5060718,85.6014346 C80.9620007,85.6014346 79.7104514,84.3489596 79.7104514,82.8048885 C79.7104514,81.2608173 80.9620007,80.0083423 82.5060718,80.0083423 C84.050143,80.0083423 85.3026179,81.2608173 85.3026179,82.8048885" id="Fill-65" fill="#2369E5"></path>
                        <path d="M111.872306,82.8048885 C111.872306,84.3489596 110.619831,85.6014346 109.075759,85.6014346 C107.532614,85.6014346 106.280139,84.3489596 106.280139,82.8048885 C106.280139,81.2608173 107.532614,80.0083423 109.075759,80.0083423 C110.619831,80.0083423 111.872306,81.2608173 111.872306,82.8048885" id="Fill-67" fill="#2369E5"></path>
                        <path d="M138.441901,82.8048885 C138.441901,84.3489596 137.190351,85.6014346 135.645354,85.6014346 C134.102209,85.6014346 132.849734,84.3489596 132.849734,82.8048885 C132.849734,81.2608173 134.102209,80.0083423 135.645354,80.0083423 C137.190351,80.0083423 138.441901,81.2608173 138.441901,82.8048885" id="Fill-69" fill="#2369E5"></path>
                        <path d="M165.012514,82.8048885 C165.012514,84.3489596 163.760039,85.6014346 162.215968,85.6014346 C160.672822,85.6014346 159.420347,84.3489596 159.420347,82.8048885 C159.420347,81.2608173 160.672822,80.0083423 162.215968,80.0083423 C163.760039,80.0083423 165.012514,81.2608173 165.012514,82.8048885" id="Fill-71" fill="#2369E5"></path>
                        <path d="M191.582109,82.8048885 C191.582109,84.3489596 190.329634,85.6014346 188.785563,85.6014346 C187.242417,85.6014346 185.989942,84.3489596 185.989942,82.8048885 C185.989942,81.2608173 187.242417,80.0083423 188.785563,80.0083423 C190.329634,80.0083423 191.582109,81.2608173 191.582109,82.8048885" id="Fill-73" fill="#2369E5"></path>
                        <path d="M218.15263,82.8048885 C218.15263,84.3489596 216.900155,85.6014346 215.356084,85.6014346 C213.812012,85.6014346 212.560463,84.3489596 212.560463,82.8048885 C212.560463,81.2608173 213.812012,80.0083423 215.356084,80.0083423 C216.900155,80.0083423 218.15263,81.2608173 218.15263,82.8048885" id="Fill-75" fill="#2369E5"></path>
                        <g id="Group-79" transform="translate(0.000000, 106.321518)">
                            <mask id="mask-13" fill="white">
                                <use xlink:href="#path-12"></use>
                            </mask>
                            <g id="Clip-78"></g>
                            <path d="M5.59188884,2.84421979 C5.59188884,4.38829094 4.33941386,5.64076591 2.79534271,5.64076591 C1.25219727,5.64076591 -0.000277710638,4.38829094 -0.000277710638,2.84421979 C-0.000277710638,1.30014864 1.25219727,0.0476736596 2.79534271,0.0476736596 C4.33941386,0.0476736596 5.59188884,1.30014864 5.59188884,2.84421979" id="Fill-77" fill="#2369E5" mask="url(#mask-13)"></path>
                        </g>
                        <path d="M32.1625022,109.165738 C32.1625022,110.709809 30.9100272,111.962284 29.365956,111.962284 C27.8218849,111.962284 26.5703356,110.709809 26.5703356,109.165738 C26.5703356,107.621667 27.8218849,106.369192 29.365956,106.369192 C30.9100272,106.369192 32.1625022,107.621667 32.1625022,109.165738" id="Fill-80" fill="#2369E5"></path>
                        <path d="M58.7320972,109.165738 C58.7320972,110.709809 57.4796222,111.962284 55.9355511,111.962284 C54.3924056,111.962284 53.1399306,110.709809 53.1399306,109.165738 C53.1399306,107.621667 54.3924056,106.369192 55.9355511,106.369192 C57.4796222,106.369192 58.7320972,107.621667 58.7320972,109.165738" id="Fill-82" fill="#2369E5"></path>
                        <path d="M85.3026179,109.165738 C85.3026179,110.709809 84.050143,111.962284 82.5060718,111.962284 C80.9620007,111.962284 79.7104514,110.709809 79.7104514,109.165738 C79.7104514,107.621667 80.9620007,106.369192 82.5060718,106.369192 C84.050143,106.369192 85.3026179,107.621667 85.3026179,109.165738" id="Fill-84" fill="#2369E5"></path>
                        <path d="M111.872306,109.165738 C111.872306,110.709809 110.619831,111.962284 109.075759,111.962284 C107.532614,111.962284 106.280139,110.709809 106.280139,109.165738 C106.280139,107.621667 107.532614,106.369192 109.075759,106.369192 C110.619831,106.369192 111.872306,107.621667 111.872306,109.165738" id="Fill-86" fill="#2369E5"></path>
                        <path d="M138.441901,109.165738 C138.441901,110.709809 137.190351,111.962284 135.645354,111.962284 C134.102209,111.962284 132.849734,110.709809 132.849734,109.165738 C132.849734,107.621667 134.102209,106.369192 135.645354,106.369192 C137.190351,106.369192 138.441901,107.621667 138.441901,109.165738" id="Fill-88" fill="#2369E5"></path>
                        <path d="M165.012514,109.165738 C165.012514,110.709809 163.760039,111.962284 162.215968,111.962284 C160.672822,111.962284 159.420347,110.709809 159.420347,109.165738 C159.420347,107.621667 160.672822,106.369192 162.215968,106.369192 C163.760039,106.369192 165.012514,107.621667 165.012514,109.165738" id="Fill-90" fill="#2369E5"></path>
                        <path d="M191.582109,109.165738 C191.582109,110.709809 190.329634,111.962284 188.785563,111.962284 C187.242417,111.962284 185.989942,110.709809 185.989942,109.165738 C185.989942,107.621667 187.242417,106.369192 188.785563,106.369192 C190.329634,106.369192 191.582109,107.621667 191.582109,109.165738" id="Fill-92" fill="#2369E5"></path>
                        <path d="M218.15263,109.165738 C218.15263,110.709809 216.900155,111.962284 215.356084,111.962284 C213.812012,111.962284 212.560463,110.709809 212.560463,109.165738 C212.560463,107.621667 213.812012,106.369192 215.356084,106.369192 C216.900155,106.369192 218.15263,107.621667 218.15263,109.165738" id="Fill-94" fill="#2369E5"></path>
                        <g id="Group-98" transform="translate(0.000000, 132.241177)">
                            <mask id="mask-15" fill="white">
                                <use xlink:href="#path-14"></use>
                            </mask>
                            <g id="Clip-97"></g>
                            <path d="M5.59188884,3.28531685 C5.59188884,4.8303137 4.33941386,6.08186298 2.79534271,6.08186298 C1.25219727,6.08186298 -0.000277710638,4.8303137 -0.000277710638,3.28531685 C-0.000277710638,1.7412457 1.25219727,0.488770723 2.79534271,0.488770723 C4.33941386,0.488770723 5.59188884,1.7412457 5.59188884,3.28531685" id="Fill-96" fill="#2369E5" mask="url(#mask-15)"></path>
                        </g>
                        <path d="M32.1625022,135.526494 C32.1625022,137.071491 30.9100272,138.32304 29.365956,138.32304 C27.8218849,138.32304 26.5703356,137.071491 26.5703356,135.526494 C26.5703356,133.982423 27.8218849,132.729948 29.365956,132.729948 C30.9100272,132.729948 32.1625022,133.982423 32.1625022,135.526494" id="Fill-99" fill="#2369E5"></path>
                        <path d="M58.7320972,135.526494 C58.7320972,137.071491 57.4796222,138.32304 55.9355511,138.32304 C54.3924056,138.32304 53.1399306,137.071491 53.1399306,135.526494 C53.1399306,133.982423 54.3924056,132.729948 55.9355511,132.729948 C57.4796222,132.729948 58.7320972,133.982423 58.7320972,135.526494" id="Fill-101" fill="#2369E5"></path>
                        <path d="M85.3026179,135.526494 C85.3026179,137.071491 84.050143,138.32304 82.5060718,138.32304 C80.9620007,138.32304 79.7104514,137.071491 79.7104514,135.526494 C79.7104514,133.982423 80.9620007,132.729948 82.5060718,132.729948 C84.050143,132.729948 85.3026179,133.982423 85.3026179,135.526494" id="Fill-103" fill="#2369E5"></path>
                        <path d="M111.872306,135.526494 C111.872306,137.071491 110.619831,138.32304 109.075759,138.32304 C107.532614,138.32304 106.280139,137.071491 106.280139,135.526494 C106.280139,133.982423 107.532614,132.729948 109.075759,132.729948 C110.619831,132.729948 111.872306,133.982423 111.872306,135.526494" id="Fill-105" fill="#2369E5"></path>
                        <path d="M138.441901,135.526494 C138.441901,137.071491 137.190351,138.32304 135.645354,138.32304 C134.102209,138.32304 132.849734,137.071491 132.849734,135.526494 C132.849734,133.982423 134.102209,132.729948 135.645354,132.729948 C137.190351,132.729948 138.441901,133.982423 138.441901,135.526494" id="Fill-107" fill="#2369E5"></path>
                        <path d="M165.012514,135.526494 C165.012514,137.071491 163.760039,138.32304 162.215968,138.32304 C160.672822,138.32304 159.420347,137.071491 159.420347,135.526494 C159.420347,133.982423 160.672822,132.729948 162.215968,132.729948 C163.760039,132.729948 165.012514,133.982423 165.012514,135.526494" id="Fill-109" fill="#2369E5"></path>
                        <path d="M191.582109,135.526494 C191.582109,137.071491 190.329634,138.32304 188.785563,138.32304 C187.242417,138.32304 185.989942,137.071491 185.989942,135.526494 C185.989942,133.982423 187.242417,132.729948 188.785563,132.729948 C190.329634,132.729948 191.582109,133.982423 191.582109,135.526494" id="Fill-111" fill="#2369E5"></path>
                        <path d="M218.15263,135.526494 C218.15263,137.071491 216.900155,138.32304 215.356084,138.32304 C213.812012,138.32304 212.560463,137.071491 212.560463,135.526494 C212.560463,133.982423 213.812012,132.729948 215.356084,132.729948 C216.900155,132.729948 218.15263,133.982423 218.15263,135.526494" id="Fill-113" fill="#2369E5"></path>
                        <g id="Group-117" transform="translate(0.000000, 159.086539)">
                            <mask id="mask-17" fill="white">
                                <use xlink:href="#path-16"></use>
                            </mask>
                            <g id="Clip-116"></g>
                            <path d="M5.59188884,2.80080436 C5.59188884,4.34580121 4.33941386,5.59735049 2.79534271,5.59735049 C1.25219727,5.59735049 -0.000277710638,4.34580121 -0.000277710638,2.80080436 C-0.000277710638,1.25673321 1.25219727,0.00425822979 2.79534271,0.00425822979 C4.33941386,0.00425822979 5.59188884,1.25673321 5.59188884,2.80080436" id="Fill-115" fill="#2369E5" mask="url(#mask-17)"></path>
                        </g>
                        <path d="M32.1625022,161.887344 C32.1625022,163.43234 30.9100272,164.68389 29.365956,164.68389 C27.8218849,164.68389 26.5703356,163.43234 26.5703356,161.887344 C26.5703356,160.343272 27.8218849,159.090797 29.365956,159.090797 C30.9100272,159.090797 32.1625022,160.343272 32.1625022,161.887344" id="Fill-118" fill="#2369E5"></path>
                        <path d="M58.7320972,161.887344 C58.7320972,163.43234 57.4796222,164.68389 55.9355511,164.68389 C54.3924056,164.68389 53.1399306,163.43234 53.1399306,161.887344 C53.1399306,160.343272 54.3924056,159.090797 55.9355511,159.090797 C57.4796222,159.090797 58.7320972,160.343272 58.7320972,161.887344" id="Fill-120" fill="#2369E5"></path>
                        <path d="M85.3026179,161.887344 C85.3026179,163.43234 84.050143,164.68389 82.5060718,164.68389 C80.9620007,164.68389 79.7104514,163.43234 79.7104514,161.887344 C79.7104514,160.343272 80.9620007,159.090797 82.5060718,159.090797 C84.050143,159.090797 85.3026179,160.343272 85.3026179,161.887344" id="Fill-122" fill="#2369E5"></path>
                        <path d="M111.872306,161.887344 C111.872306,163.43234 110.619831,164.68389 109.075759,164.68389 C107.532614,164.68389 106.280139,163.43234 106.280139,161.887344 C106.280139,160.343272 107.532614,159.090797 109.075759,159.090797 C110.619831,159.090797 111.872306,160.343272 111.872306,161.887344" id="Fill-124" fill="#2369E5"></path>
                        <path d="M138.441901,161.887344 C138.441901,163.43234 137.190351,164.68389 135.645354,164.68389 C134.102209,164.68389 132.849734,163.43234 132.849734,161.887344 C132.849734,160.343272 134.102209,159.090797 135.645354,159.090797 C137.190351,159.090797 138.441901,160.343272 138.441901,161.887344" id="Fill-126" fill="#2369E5"></path>
                        <path d="M165.012514,161.887344 C165.012514,163.43234 163.760039,164.68389 162.215968,164.68389 C160.672822,164.68389 159.420347,163.43234 159.420347,161.887344 C159.420347,160.343272 160.672822,159.090797 162.215968,159.090797 C163.760039,159.090797 165.012514,160.343272 165.012514,161.887344" id="Fill-128" fill="#2369E5"></path>
                        <path d="M191.582109,161.887344 C191.582109,163.43234 190.329634,164.68389 188.785563,164.68389 C187.242417,164.68389 185.989942,163.43234 185.989942,161.887344 C185.989942,160.343272 187.242417,159.090797 188.785563,159.090797 C190.329634,159.090797 191.582109,160.343272 191.582109,161.887344" id="Fill-130" fill="#2369E5"></path>
                        <path d="M218.15263,161.887344 C218.15263,163.43234 216.900155,164.68389 215.356084,164.68389 C213.812012,164.68389 212.560463,163.43234 212.560463,161.887344 C212.560463,160.343272 213.812012,159.090797 215.356084,159.090797 C216.900155,159.090797 218.15263,160.343272 218.15263,161.887344" id="Fill-132" fill="#2369E5"></path>
                        <g id="Group-136" transform="translate(0.000000, 185.006199)">
                            <mask id="mask-19" fill="white">
                                <use xlink:href="#path-18"></use>
                            </mask>
                            <g id="Clip-135"></g>
                            <path d="M5.59188884,3.24282712 C5.59188884,4.78689827 4.33941386,6.03937325 2.79534271,6.03937325 C1.25219727,6.03937325 -0.000277710638,4.78689827 -0.000277710638,3.24282712 C-0.000277710638,1.69783027 1.25219727,0.446280996 2.79534271,0.446280996 C4.33941386,0.446280996 5.59188884,1.69783027 5.59188884,3.24282712" id="Fill-134" fill="#2369E5" mask="url(#mask-19)"></path>
                        </g>
                        <path d="M32.1625022,188.249026 C32.1625022,189.793097 30.9100272,191.045572 29.365956,191.045572 C27.8218849,191.045572 26.5703356,189.793097 26.5703356,188.249026 C26.5703356,186.704029 27.8218849,185.45248 29.365956,185.45248 C30.9100272,185.45248 32.1625022,186.704029 32.1625022,188.249026" id="Fill-137" fill="#2369E5"></path>
                        <path d="M58.7320972,188.249026 C58.7320972,189.793097 57.4796222,191.045572 55.9355511,191.045572 C54.3924056,191.045572 53.1399306,189.793097 53.1399306,188.249026 C53.1399306,186.704029 54.3924056,185.45248 55.9355511,185.45248 C57.4796222,185.45248 58.7320972,186.704029 58.7320972,188.249026" id="Fill-139" fill="#2369E5"></path>
                        <path d="M85.3026179,188.249026 C85.3026179,189.793097 84.050143,191.045572 82.5060718,191.045572 C80.9620007,191.045572 79.7104514,189.793097 79.7104514,188.249026 C79.7104514,186.704029 80.9620007,185.45248 82.5060718,185.45248 C84.050143,185.45248 85.3026179,186.704029 85.3026179,188.249026" id="Fill-141" fill="#2369E5"></path>
                        <path d="M111.872306,188.249026 C111.872306,189.793097 110.619831,191.045572 109.075759,191.045572 C107.532614,191.045572 106.280139,189.793097 106.280139,188.249026 C106.280139,186.704029 107.532614,185.45248 109.075759,185.45248 C110.619831,185.45248 111.872306,186.704029 111.872306,188.249026" id="Fill-143" fill="#2369E5"></path>
                        <path d="M138.441901,188.249026 C138.441901,189.793097 137.190351,191.045572 135.645354,191.045572 C134.102209,191.045572 132.849734,189.793097 132.849734,188.249026 C132.849734,186.704029 134.102209,185.45248 135.645354,185.45248 C137.190351,185.45248 138.441901,186.704029 138.441901,188.249026" id="Fill-145" fill="#2369E5"></path>
                        <path d="M165.012514,188.249026 C165.012514,189.793097 163.760039,191.045572 162.215968,191.045572 C160.672822,191.045572 159.420347,189.793097 159.420347,188.249026 C159.420347,186.704029 160.672822,185.45248 162.215968,185.45248 C163.760039,185.45248 165.012514,186.704029 165.012514,188.249026" id="Fill-147" fill="#2369E5"></path>
                        <path d="M191.582109,188.249026 C191.582109,189.793097 190.329634,191.045572 188.785563,191.045572 C187.242417,191.045572 185.989942,189.793097 185.989942,188.249026 C185.989942,186.704029 187.242417,185.45248 188.785563,185.45248 C190.329634,185.45248 191.582109,186.704029 191.582109,188.249026" id="Fill-149" fill="#2369E5"></path>
                        <path d="M218.15263,188.249026 C218.15263,189.793097 216.900155,191.045572 215.356084,191.045572 C213.812012,191.045572 212.560463,189.793097 212.560463,188.249026 C212.560463,186.704029 213.812012,185.45248 215.356084,185.45248 C216.900155,185.45248 218.15263,186.704029 218.15263,188.249026" id="Fill-151" fill="#2369E5"></path>
                        <g id="Group-155" transform="translate(0.000000, 210.925858)">
                            <mask id="mask-21" fill="white">
                                <use xlink:href="#path-20"></use>
                            </mask>
                            <g id="Clip-154"></g>
                            <path d="M5.59188884,3.68401676 C5.59188884,5.22808791 4.33941386,6.48056289 2.79534271,6.48056289 C1.25219727,6.48056289 -0.000277710638,5.22808791 -0.000277710638,3.68401676 C-0.000277710638,2.13994561 1.25219727,0.88747063 2.79534271,0.88747063 C4.33941386,0.88747063 5.59188884,2.13994561 5.59188884,3.68401676" id="Fill-153" fill="#2369E5" mask="url(#mask-21)"></path>
                        </g>
                        <g id="Group-158" transform="translate(25.919660, 210.925858)">
                            <mask id="mask-23" fill="white">
                                <use xlink:href="#path-22"></use>
                            </mask>
                            <g id="Clip-157"></g>
                            <path d="M6.24284258,3.68401676 C6.24284258,5.22808791 4.9903676,6.48056289 3.44629645,6.48056289 C1.9022253,6.48056289 0.650676026,5.22808791 0.650676026,3.68401676 C0.650676026,2.13994561 1.9022253,0.88747063 3.44629645,0.88747063 C4.9903676,0.88747063 6.24284258,2.13994561 6.24284258,3.68401676" id="Fill-156" fill="#2369E5" mask="url(#mask-23)"></path>
                        </g>
                        <g id="Group-161" transform="translate(52.765021, 210.925858)">
                            <mask id="mask-25" fill="white">
                                <use xlink:href="#path-24"></use>
                            </mask>
                            <g id="Clip-160"></g>
                            <path d="M5.96707591,3.68401676 C5.96707591,5.22808791 4.71460094,6.48056289 3.17052979,6.48056289 C1.62738434,6.48056289 0.374909362,5.22808791 0.374909362,3.68401676 C0.374909362,2.13994561 1.62738434,0.88747063 3.17052979,0.88747063 C4.71460094,0.88747063 5.96707591,2.13994561 5.96707591,3.68401676" id="Fill-159" fill="#2369E5" mask="url(#mask-25)"></path>
                        </g>
                        <g id="Group-164" transform="translate(79.610383, 210.925858)">
                            <mask id="mask-27" fill="white">
                                <use xlink:href="#path-26"></use>
                            </mask>
                            <g id="Clip-163"></g>
                            <path d="M5.69223495,3.68401676 C5.69223495,5.22808791 4.43975997,6.48056289 2.89568883,6.48056289 C1.35161768,6.48056289 0.1000684,5.22808791 0.1000684,3.68401676 C0.1000684,2.13994561 1.35161768,0.88747063 2.89568883,0.88747063 C4.43975997,0.88747063 5.69223495,2.13994561 5.69223495,3.68401676" id="Fill-162" fill="#2369E5" mask="url(#mask-27)"></path>
                        </g>
                        <g id="Group-167" transform="translate(105.530043, 210.925858)">
                            <mask id="mask-29" fill="white">
                                <use xlink:href="#path-28"></use>
                            </mask>
                            <g id="Clip-166"></g>
                            <path d="M6.34226299,3.68401676 C6.34226299,5.22808791 5.08978801,6.48056289 3.54571686,6.48056289 C2.00257141,6.48056289 0.750096434,5.22808791 0.750096434,3.68401676 C0.750096434,2.13994561 2.00257141,0.88747063 3.54571686,0.88747063 C5.08978801,0.88747063 6.34226299,2.13994561 6.34226299,3.68401676" id="Fill-165" fill="#2369E5" mask="url(#mask-29)"></path>
                        </g>
                        <g id="Group-170" transform="translate(132.375404, 210.925858)">
                            <mask id="mask-31" fill="white">
                                <use xlink:href="#path-30"></use>
                            </mask>
                            <g id="Clip-169"></g>
                            <path d="M6.06649632,3.68401676 C6.06649632,5.22808791 4.81494705,6.48056289 3.2699502,6.48056289 C1.72680475,6.48056289 0.47432977,5.22808791 0.47432977,3.68401676 C0.47432977,2.13994561 1.72680475,0.88747063 3.2699502,0.88747063 C4.81494705,0.88747063 6.06649632,2.13994561 6.06649632,3.68401676" id="Fill-168" fill="#2369E5" mask="url(#mask-31)"></path>
                        </g>
                        <g id="Group-173" transform="translate(159.220766, 210.925858)">
                            <mask id="mask-33" fill="white">
                                <use xlink:href="#path-32"></use>
                            </mask>
                            <g id="Clip-172"></g>
                            <path d="M5.79174793,3.68401676 C5.79174793,5.22808791 4.53927295,6.48056289 2.9952018,6.48056289 C1.45205636,6.48056289 0.199581379,5.22808791 0.199581379,3.68401676 C0.199581379,2.13994561 1.45205636,0.88747063 2.9952018,0.88747063 C4.53927295,0.88747063 5.79174793,2.13994561 5.79174793,3.68401676" id="Fill-171" fill="#2369E5" mask="url(#mask-33)"></path>
                        </g>
                        <g id="Group-176" transform="translate(185.140426, 210.925858)">
                            <mask id="mask-35" fill="white">
                                <use xlink:href="#path-34"></use>
                            </mask>
                            <g id="Clip-175"></g>
                            <path d="M6.4416834,3.68401676 C6.4416834,5.22808791 5.18920842,6.48056289 3.64513727,6.48056289 C2.10199182,6.48056289 0.849516843,5.22808791 0.849516843,3.68401676 C0.849516843,2.13994561 2.10199182,0.88747063 3.64513727,0.88747063 C5.18920842,0.88747063 6.4416834,2.13994561 6.4416834,3.68401676" id="Fill-174" fill="#2369E5" mask="url(#mask-35)"></path>
                        </g>
                        <g id="Group-179" transform="translate(211.985787, 210.925858)">
                            <mask id="mask-37" fill="white">
                                <use xlink:href="#path-36"></use>
                            </mask>
                            <g id="Clip-178"></g>
                            <path d="M6.16684243,3.68401676 C6.16684243,5.22808791 4.91436746,6.48056289 3.37029631,6.48056289 C1.82622516,6.48056289 0.574675881,5.22808791 0.574675881,3.68401676 C0.574675881,2.13994561 1.82622516,0.88747063 3.37029631,0.88747063 C4.91436746,0.88747063 6.16684243,2.13994561 6.16684243,3.68401676" id="Fill-177" fill="#2369E5" mask="url(#mask-37)"></path>
                        </g>
                    </g>
                </g>
                <g id="Group-182" opacity="0.243024554" transform="translate(1370.829782, 191.473938) rotate(-330.000000) translate(-1370.829782, -191.473938) translate(1261.329782, 82.473938)">
                    <g id="Group-3" transform="translate(0.000000, 0.791475)">
                        <mask id="mask-39" fill="white">
                            <use xlink:href="#path-38"></use>
                        </mask>
                        <g id="Clip-2"></g>
                        <path d="M5.59188884,2.93095808 C5.59188884,4.47502923 4.33941386,5.7275042 2.79534271,5.7275042 C1.25219727,5.7275042 -0.000277710638,4.47502923 -0.000277710638,2.93095808 C-0.000277710638,1.38596123 1.25219727,0.134411949 2.79534271,0.134411949 C4.33941386,0.134411949 5.59188884,1.38596123 5.59188884,2.93095808" id="Fill-1" fill="#2369E5" mask="url(#mask-39)"></path>
                    </g>
                    <path d="M32.1625022,3.7224334 C32.1625022,5.26650454 30.9100272,6.51897952 29.365956,6.51897952 C27.8218849,6.51897952 26.5703356,5.26650454 26.5703356,3.7224334 C26.5703356,2.17743654 27.8218849,0.925887268 29.365956,0.925887268 C30.9100272,0.925887268 32.1625022,2.17743654 32.1625022,3.7224334" id="Fill-4" fill="#2369E5"></path>
                    <path d="M58.7320972,3.7224334 C58.7320972,5.26650454 57.4796222,6.51897952 55.9355511,6.51897952 C54.3924056,6.51897952 53.1399306,5.26650454 53.1399306,3.7224334 C53.1399306,2.17743654 54.3924056,0.925887268 55.9355511,0.925887268 C57.4796222,0.925887268 58.7320972,2.17743654 58.7320972,3.7224334" id="Fill-6" fill="#2369E5"></path>
                    <path d="M85.3026179,3.7224334 C85.3026179,5.26650454 84.050143,6.51897952 82.5060718,6.51897952 C80.9620007,6.51897952 79.7104514,5.26650454 79.7104514,3.7224334 C79.7104514,2.17743654 80.9620007,0.925887268 82.5060718,0.925887268 C84.050143,0.925887268 85.3026179,2.17743654 85.3026179,3.7224334" id="Fill-8" fill="#2369E5"></path>
                    <path d="M111.872306,3.7224334 C111.872306,5.26650454 110.619831,6.51897952 109.075759,6.51897952 C107.532614,6.51897952 106.280139,5.26650454 106.280139,3.7224334 C106.280139,2.17743654 107.532614,0.925887268 109.075759,0.925887268 C110.619831,0.925887268 111.872306,2.17743654 111.872306,3.7224334" id="Fill-10" fill="#2369E5"></path>
                    <path d="M138.441901,3.7224334 C138.441901,5.26650454 137.190351,6.51897952 135.645354,6.51897952 C134.102209,6.51897952 132.849734,5.26650454 132.849734,3.7224334 C132.849734,2.17743654 134.102209,0.925887268 135.645354,0.925887268 C137.190351,0.925887268 138.441901,2.17743654 138.441901,3.7224334" id="Fill-12" fill="#2369E5"></path>
                    <path d="M165.012514,3.7224334 C165.012514,5.26650454 163.760039,6.51897952 162.215968,6.51897952 C160.672822,6.51897952 159.420347,5.26650454 159.420347,3.7224334 C159.420347,2.17743654 160.672822,0.925887268 162.215968,0.925887268 C163.760039,0.925887268 165.012514,2.17743654 165.012514,3.7224334" id="Fill-14" fill="#2369E5"></path>
                    <path d="M191.582109,3.7224334 C191.582109,5.26650454 190.329634,6.51897952 188.785563,6.51897952 C187.242417,6.51897952 185.989942,5.26650454 185.989942,3.7224334 C185.989942,2.17743654 187.242417,0.925887268 188.785563,0.925887268 C190.329634,0.925887268 191.582109,2.17743654 191.582109,3.7224334" id="Fill-16" fill="#2369E5"></path>
                    <path d="M218.15263,3.7224334 C218.15263,5.26650454 216.900155,6.51897952 215.356084,6.51897952 C213.812012,6.51897952 212.560463,5.26650454 212.560463,3.7224334 C212.560463,2.17743654 213.812012,0.925887268 215.356084,0.925887268 C216.900155,0.925887268 218.15263,2.17743654 218.15263,3.7224334" id="Fill-18" fill="#2369E5"></path>
                    <g id="Group-22" transform="translate(0.000000, 26.711135)">
                        <mask id="mask-41" fill="white">
                            <use xlink:href="#path-40"></use>
                        </mask>
                        <g id="Clip-21"></g>
                        <path d="M5.59188884,3.37214771 C5.59188884,4.91621886 4.33941386,6.16869384 2.79534271,6.16869384 C1.25219727,6.16869384 -0.000277710638,4.91621886 -0.000277710638,3.37214771 C-0.000277710638,1.82807656 1.25219727,0.575601583 2.79534271,0.575601583 C4.33941386,0.575601583 5.59188884,1.82807656 5.59188884,3.37214771" id="Fill-20" fill="#2369E5" mask="url(#mask-41)"></path>
                    </g>
                    <path d="M32.1625022,30.0832826 C32.1625022,31.6273538 30.9100272,32.8798287 29.365956,32.8798287 C27.8218849,32.8798287 26.5703356,31.6273538 26.5703356,30.0832826 C26.5703356,28.5392115 27.8218849,27.2867365 29.365956,27.2867365 C30.9100272,27.2867365 32.1625022,28.5392115 32.1625022,30.0832826" id="Fill-23" fill="#2369E5"></path>
                    <path d="M58.7320972,30.0832826 C58.7320972,31.6273538 57.4796222,32.8798287 55.9355511,32.8798287 C54.3924056,32.8798287 53.1399306,31.6273538 53.1399306,30.0832826 C53.1399306,28.5392115 54.3924056,27.2867365 55.9355511,27.2867365 C57.4796222,27.2867365 58.7320972,28.5392115 58.7320972,30.0832826" id="Fill-25" fill="#2369E5"></path>
                    <path d="M85.3026179,30.0832826 C85.3026179,31.6273538 84.050143,32.8798287 82.5060718,32.8798287 C80.9620007,32.8798287 79.7104514,31.6273538 79.7104514,30.0832826 C79.7104514,28.5392115 80.9620007,27.2867365 82.5060718,27.2867365 C84.050143,27.2867365 85.3026179,28.5392115 85.3026179,30.0832826" id="Fill-27" fill="#2369E5"></path>
                    <path d="M111.872306,30.0832826 C111.872306,31.6273538 110.619831,32.8798287 109.075759,32.8798287 C107.532614,32.8798287 106.280139,31.6273538 106.280139,30.0832826 C106.280139,28.5392115 107.532614,27.2867365 109.075759,27.2867365 C110.619831,27.2867365 111.872306,28.5392115 111.872306,30.0832826" id="Fill-29" fill="#2369E5"></path>
                    <path d="M138.441901,30.0832826 C138.441901,31.6273538 137.190351,32.8798287 135.645354,32.8798287 C134.102209,32.8798287 132.849734,31.6273538 132.849734,30.0832826 C132.849734,28.5392115 134.102209,27.2867365 135.645354,27.2867365 C137.190351,27.2867365 138.441901,28.5392115 138.441901,30.0832826" id="Fill-31" fill="#2369E5"></path>
                    <path d="M165.012514,30.0832826 C165.012514,31.6273538 163.760039,32.8798287 162.215968,32.8798287 C160.672822,32.8798287 159.420347,31.6273538 159.420347,30.0832826 C159.420347,28.5392115 160.672822,27.2867365 162.215968,27.2867365 C163.760039,27.2867365 165.012514,28.5392115 165.012514,30.0832826" id="Fill-33" fill="#2369E5"></path>
                    <path d="M191.582109,30.0832826 C191.582109,31.6273538 190.329634,32.8798287 188.785563,32.8798287 C187.242417,32.8798287 185.989942,31.6273538 185.989942,30.0832826 C185.989942,28.5392115 187.242417,27.2867365 188.785563,27.2867365 C190.329634,27.2867365 191.582109,28.5392115 191.582109,30.0832826" id="Fill-35" fill="#2369E5"></path>
                    <path d="M218.15263,30.0832826 C218.15263,31.6273538 216.900155,32.8798287 215.356084,32.8798287 C213.812012,32.8798287 212.560463,31.6273538 212.560463,30.0832826 C212.560463,28.5392115 213.812012,27.2867365 215.356084,27.2867365 C216.900155,27.2867365 218.15263,28.5392115 218.15263,30.0832826" id="Fill-37" fill="#2369E5"></path>
                    <g id="Group-41" transform="translate(0.000000, 53.556497)">
                        <mask id="mask-43" fill="white">
                            <use xlink:href="#path-42"></use>
                        </mask>
                        <g id="Clip-40"></g>
                        <path d="M5.59188884,2.88754265 C5.59188884,4.4316138 4.33941386,5.68408877 2.79534271,5.68408877 C1.25219727,5.68408877 -0.000277710638,4.4316138 -0.000277710638,2.88754265 C-0.000277710638,1.3434715 1.25219727,0.0909965191 2.79534271,0.0909965191 C4.33941386,0.0909965191 5.59188884,1.3434715 5.59188884,2.88754265" id="Fill-39" fill="#2369E5" mask="url(#mask-43)"></path>
                    </g>
                    <path d="M32.1625022,56.4440392 C32.1625022,57.9881104 30.9100272,59.2405854 29.365956,59.2405854 C27.8218849,59.2405854 26.5703356,57.9881104 26.5703356,56.4440392 C26.5703356,54.8999681 27.8218849,53.6474931 29.365956,53.6474931 C30.9100272,53.6474931 32.1625022,54.8999681 32.1625022,56.4440392" id="Fill-42" fill="#2369E5"></path>
                    <path d="M58.7320972,56.4440392 C58.7320972,57.9881104 57.4796222,59.2405854 55.9355511,59.2405854 C54.3924056,59.2405854 53.1399306,57.9881104 53.1399306,56.4440392 C53.1399306,54.8999681 54.3924056,53.6474931 55.9355511,53.6474931 C57.4796222,53.6474931 58.7320972,54.8999681 58.7320972,56.4440392" id="Fill-44" fill="#2369E5"></path>
                    <path d="M85.3026179,56.4440392 C85.3026179,57.9881104 84.050143,59.2405854 82.5060718,59.2405854 C80.9620007,59.2405854 79.7104514,57.9881104 79.7104514,56.4440392 C79.7104514,54.8999681 80.9620007,53.6474931 82.5060718,53.6474931 C84.050143,53.6474931 85.3026179,54.8999681 85.3026179,56.4440392" id="Fill-46" fill="#2369E5"></path>
                    <path d="M111.872306,56.4440392 C111.872306,57.9881104 110.619831,59.2405854 109.075759,59.2405854 C107.532614,59.2405854 106.280139,57.9881104 106.280139,56.4440392 C106.280139,54.8999681 107.532614,53.6474931 109.075759,53.6474931 C110.619831,53.6474931 111.872306,54.8999681 111.872306,56.4440392" id="Fill-48" fill="#2369E5"></path>
                    <path d="M138.441901,56.4440392 C138.441901,57.9881104 137.190351,59.2405854 135.645354,59.2405854 C134.102209,59.2405854 132.849734,57.9881104 132.849734,56.4440392 C132.849734,54.8999681 134.102209,53.6474931 135.645354,53.6474931 C137.190351,53.6474931 138.441901,54.8999681 138.441901,56.4440392" id="Fill-50" fill="#2369E5"></path>
                    <path d="M165.012514,56.4440392 C165.012514,57.9881104 163.760039,59.2405854 162.215968,59.2405854 C160.672822,59.2405854 159.420347,57.9881104 159.420347,56.4440392 C159.420347,54.8999681 160.672822,53.6474931 162.215968,53.6474931 C163.760039,53.6474931 165.012514,54.8999681 165.012514,56.4440392" id="Fill-52" fill="#2369E5"></path>
                    <path d="M191.582109,56.4440392 C191.582109,57.9881104 190.329634,59.2405854 188.785563,59.2405854 C187.242417,59.2405854 185.989942,57.9881104 185.989942,56.4440392 C185.989942,54.8999681 187.242417,53.6474931 188.785563,53.6474931 C190.329634,53.6474931 191.582109,54.8999681 191.582109,56.4440392" id="Fill-54" fill="#2369E5"></path>
                    <path d="M218.15263,56.4440392 C218.15263,57.9881104 216.900155,59.2405854 215.356084,59.2405854 C213.812012,59.2405854 212.560463,57.9881104 212.560463,56.4440392 C212.560463,54.8999681 213.812012,53.6474931 215.356084,53.6474931 C216.900155,53.6474931 218.15263,54.8999681 218.15263,56.4440392" id="Fill-56" fill="#2369E5"></path>
                    <g id="Group-60" transform="translate(0.000000, 79.476156)">
                        <mask id="mask-45" fill="white">
                            <use xlink:href="#path-44"></use>
                        </mask>
                        <g id="Clip-59"></g>
                        <path d="M5.59188884,3.32873228 C5.59188884,4.87280343 4.33941386,6.12527841 2.79534271,6.12527841 C1.25219727,6.12527841 -0.000277710638,4.87280343 -0.000277710638,3.32873228 C-0.000277710638,1.78466113 1.25219727,0.532186153 2.79534271,0.532186153 C4.33941386,0.532186153 5.59188884,1.78466113 5.59188884,3.32873228" id="Fill-58" fill="#2369E5" mask="url(#mask-45)"></path>
                    </g>
                    <path d="M32.1625022,82.8048885 C32.1625022,84.3489596 30.9100272,85.6014346 29.365956,85.6014346 C27.8218849,85.6014346 26.5703356,84.3489596 26.5703356,82.8048885 C26.5703356,81.2608173 27.8218849,80.0083423 29.365956,80.0083423 C30.9100272,80.0083423 32.1625022,81.2608173 32.1625022,82.8048885" id="Fill-61" fill="#2369E5"></path>
                    <path d="M58.7320972,82.8048885 C58.7320972,84.3489596 57.4796222,85.6014346 55.9355511,85.6014346 C54.3924056,85.6014346 53.1399306,84.3489596 53.1399306,82.8048885 C53.1399306,81.2608173 54.3924056,80.0083423 55.9355511,80.0083423 C57.4796222,80.0083423 58.7320972,81.2608173 58.7320972,82.8048885" id="Fill-63" fill="#2369E5"></path>
                    <path d="M85.3026179,82.8048885 C85.3026179,84.3489596 84.050143,85.6014346 82.5060718,85.6014346 C80.9620007,85.6014346 79.7104514,84.3489596 79.7104514,82.8048885 C79.7104514,81.2608173 80.9620007,80.0083423 82.5060718,80.0083423 C84.050143,80.0083423 85.3026179,81.2608173 85.3026179,82.8048885" id="Fill-65" fill="#2369E5"></path>
                    <path d="M111.872306,82.8048885 C111.872306,84.3489596 110.619831,85.6014346 109.075759,85.6014346 C107.532614,85.6014346 106.280139,84.3489596 106.280139,82.8048885 C106.280139,81.2608173 107.532614,80.0083423 109.075759,80.0083423 C110.619831,80.0083423 111.872306,81.2608173 111.872306,82.8048885" id="Fill-67" fill="#2369E5"></path>
                    <path d="M138.441901,82.8048885 C138.441901,84.3489596 137.190351,85.6014346 135.645354,85.6014346 C134.102209,85.6014346 132.849734,84.3489596 132.849734,82.8048885 C132.849734,81.2608173 134.102209,80.0083423 135.645354,80.0083423 C137.190351,80.0083423 138.441901,81.2608173 138.441901,82.8048885" id="Fill-69" fill="#2369E5"></path>
                    <path d="M165.012514,82.8048885 C165.012514,84.3489596 163.760039,85.6014346 162.215968,85.6014346 C160.672822,85.6014346 159.420347,84.3489596 159.420347,82.8048885 C159.420347,81.2608173 160.672822,80.0083423 162.215968,80.0083423 C163.760039,80.0083423 165.012514,81.2608173 165.012514,82.8048885" id="Fill-71" fill="#2369E5"></path>
                    <path d="M191.582109,82.8048885 C191.582109,84.3489596 190.329634,85.6014346 188.785563,85.6014346 C187.242417,85.6014346 185.989942,84.3489596 185.989942,82.8048885 C185.989942,81.2608173 187.242417,80.0083423 188.785563,80.0083423 C190.329634,80.0083423 191.582109,81.2608173 191.582109,82.8048885" id="Fill-73" fill="#2369E5"></path>
                    <path d="M218.15263,82.8048885 C218.15263,84.3489596 216.900155,85.6014346 215.356084,85.6014346 C213.812012,85.6014346 212.560463,84.3489596 212.560463,82.8048885 C212.560463,81.2608173 213.812012,80.0083423 215.356084,80.0083423 C216.900155,80.0083423 218.15263,81.2608173 218.15263,82.8048885" id="Fill-75" fill="#2369E5"></path>
                    <g id="Group-79" transform="translate(0.000000, 106.321518)">
                        <mask id="mask-47" fill="white">
                            <use xlink:href="#path-46"></use>
                        </mask>
                        <g id="Clip-78"></g>
                        <path d="M5.59188884,2.84421979 C5.59188884,4.38829094 4.33941386,5.64076591 2.79534271,5.64076591 C1.25219727,5.64076591 -0.000277710638,4.38829094 -0.000277710638,2.84421979 C-0.000277710638,1.30014864 1.25219727,0.0476736596 2.79534271,0.0476736596 C4.33941386,0.0476736596 5.59188884,1.30014864 5.59188884,2.84421979" id="Fill-77" fill="#2369E5" mask="url(#mask-47)"></path>
                    </g>
                    <path d="M32.1625022,109.165738 C32.1625022,110.709809 30.9100272,111.962284 29.365956,111.962284 C27.8218849,111.962284 26.5703356,110.709809 26.5703356,109.165738 C26.5703356,107.621667 27.8218849,106.369192 29.365956,106.369192 C30.9100272,106.369192 32.1625022,107.621667 32.1625022,109.165738" id="Fill-80" fill="#2369E5"></path>
                    <path d="M58.7320972,109.165738 C58.7320972,110.709809 57.4796222,111.962284 55.9355511,111.962284 C54.3924056,111.962284 53.1399306,110.709809 53.1399306,109.165738 C53.1399306,107.621667 54.3924056,106.369192 55.9355511,106.369192 C57.4796222,106.369192 58.7320972,107.621667 58.7320972,109.165738" id="Fill-82" fill="#2369E5"></path>
                    <path d="M85.3026179,109.165738 C85.3026179,110.709809 84.050143,111.962284 82.5060718,111.962284 C80.9620007,111.962284 79.7104514,110.709809 79.7104514,109.165738 C79.7104514,107.621667 80.9620007,106.369192 82.5060718,106.369192 C84.050143,106.369192 85.3026179,107.621667 85.3026179,109.165738" id="Fill-84" fill="#2369E5"></path>
                    <path d="M111.872306,109.165738 C111.872306,110.709809 110.619831,111.962284 109.075759,111.962284 C107.532614,111.962284 106.280139,110.709809 106.280139,109.165738 C106.280139,107.621667 107.532614,106.369192 109.075759,106.369192 C110.619831,106.369192 111.872306,107.621667 111.872306,109.165738" id="Fill-86" fill="#2369E5"></path>
                    <path d="M138.441901,109.165738 C138.441901,110.709809 137.190351,111.962284 135.645354,111.962284 C134.102209,111.962284 132.849734,110.709809 132.849734,109.165738 C132.849734,107.621667 134.102209,106.369192 135.645354,106.369192 C137.190351,106.369192 138.441901,107.621667 138.441901,109.165738" id="Fill-88" fill="#2369E5"></path>
                    <path d="M165.012514,109.165738 C165.012514,110.709809 163.760039,111.962284 162.215968,111.962284 C160.672822,111.962284 159.420347,110.709809 159.420347,109.165738 C159.420347,107.621667 160.672822,106.369192 162.215968,106.369192 C163.760039,106.369192 165.012514,107.621667 165.012514,109.165738" id="Fill-90" fill="#2369E5"></path>
                    <path d="M191.582109,109.165738 C191.582109,110.709809 190.329634,111.962284 188.785563,111.962284 C187.242417,111.962284 185.989942,110.709809 185.989942,109.165738 C185.989942,107.621667 187.242417,106.369192 188.785563,106.369192 C190.329634,106.369192 191.582109,107.621667 191.582109,109.165738" id="Fill-92" fill="#2369E5"></path>
                    <path d="M218.15263,109.165738 C218.15263,110.709809 216.900155,111.962284 215.356084,111.962284 C213.812012,111.962284 212.560463,110.709809 212.560463,109.165738 C212.560463,107.621667 213.812012,106.369192 215.356084,106.369192 C216.900155,106.369192 218.15263,107.621667 218.15263,109.165738" id="Fill-94" fill="#2369E5"></path>
                    <g id="Group-98" transform="translate(0.000000, 132.241177)">
                        <mask id="mask-49" fill="white">
                            <use xlink:href="#path-48"></use>
                        </mask>
                        <g id="Clip-97"></g>
                        <path d="M5.59188884,3.28531685 C5.59188884,4.8303137 4.33941386,6.08186298 2.79534271,6.08186298 C1.25219727,6.08186298 -0.000277710638,4.8303137 -0.000277710638,3.28531685 C-0.000277710638,1.7412457 1.25219727,0.488770723 2.79534271,0.488770723 C4.33941386,0.488770723 5.59188884,1.7412457 5.59188884,3.28531685" id="Fill-96" fill="#2369E5" mask="url(#mask-49)"></path>
                    </g>
                    <path d="M32.1625022,135.526494 C32.1625022,137.071491 30.9100272,138.32304 29.365956,138.32304 C27.8218849,138.32304 26.5703356,137.071491 26.5703356,135.526494 C26.5703356,133.982423 27.8218849,132.729948 29.365956,132.729948 C30.9100272,132.729948 32.1625022,133.982423 32.1625022,135.526494" id="Fill-99" fill="#2369E5"></path>
                    <path d="M58.7320972,135.526494 C58.7320972,137.071491 57.4796222,138.32304 55.9355511,138.32304 C54.3924056,138.32304 53.1399306,137.071491 53.1399306,135.526494 C53.1399306,133.982423 54.3924056,132.729948 55.9355511,132.729948 C57.4796222,132.729948 58.7320972,133.982423 58.7320972,135.526494" id="Fill-101" fill="#2369E5"></path>
                    <path d="M85.3026179,135.526494 C85.3026179,137.071491 84.050143,138.32304 82.5060718,138.32304 C80.9620007,138.32304 79.7104514,137.071491 79.7104514,135.526494 C79.7104514,133.982423 80.9620007,132.729948 82.5060718,132.729948 C84.050143,132.729948 85.3026179,133.982423 85.3026179,135.526494" id="Fill-103" fill="#2369E5"></path>
                    <path d="M111.872306,135.526494 C111.872306,137.071491 110.619831,138.32304 109.075759,138.32304 C107.532614,138.32304 106.280139,137.071491 106.280139,135.526494 C106.280139,133.982423 107.532614,132.729948 109.075759,132.729948 C110.619831,132.729948 111.872306,133.982423 111.872306,135.526494" id="Fill-105" fill="#2369E5"></path>
                    <path d="M138.441901,135.526494 C138.441901,137.071491 137.190351,138.32304 135.645354,138.32304 C134.102209,138.32304 132.849734,137.071491 132.849734,135.526494 C132.849734,133.982423 134.102209,132.729948 135.645354,132.729948 C137.190351,132.729948 138.441901,133.982423 138.441901,135.526494" id="Fill-107" fill="#2369E5"></path>
                    <path d="M165.012514,135.526494 C165.012514,137.071491 163.760039,138.32304 162.215968,138.32304 C160.672822,138.32304 159.420347,137.071491 159.420347,135.526494 C159.420347,133.982423 160.672822,132.729948 162.215968,132.729948 C163.760039,132.729948 165.012514,133.982423 165.012514,135.526494" id="Fill-109" fill="#2369E5"></path>
                    <path d="M191.582109,135.526494 C191.582109,137.071491 190.329634,138.32304 188.785563,138.32304 C187.242417,138.32304 185.989942,137.071491 185.989942,135.526494 C185.989942,133.982423 187.242417,132.729948 188.785563,132.729948 C190.329634,132.729948 191.582109,133.982423 191.582109,135.526494" id="Fill-111" fill="#2369E5"></path>
                    <path d="M218.15263,135.526494 C218.15263,137.071491 216.900155,138.32304 215.356084,138.32304 C213.812012,138.32304 212.560463,137.071491 212.560463,135.526494 C212.560463,133.982423 213.812012,132.729948 215.356084,132.729948 C216.900155,132.729948 218.15263,133.982423 218.15263,135.526494" id="Fill-113" fill="#2369E5"></path>
                    <g id="Group-117" transform="translate(0.000000, 159.086539)">
                        <mask id="mask-51" fill="white">
                            <use xlink:href="#path-50"></use>
                        </mask>
                        <g id="Clip-116"></g>
                        <path d="M5.59188884,2.80080436 C5.59188884,4.34580121 4.33941386,5.59735049 2.79534271,5.59735049 C1.25219727,5.59735049 -0.000277710638,4.34580121 -0.000277710638,2.80080436 C-0.000277710638,1.25673321 1.25219727,0.00425822979 2.79534271,0.00425822979 C4.33941386,0.00425822979 5.59188884,1.25673321 5.59188884,2.80080436" id="Fill-115" fill="#2369E5" mask="url(#mask-51)"></path>
                    </g>
                    <path d="M32.1625022,161.887344 C32.1625022,163.43234 30.9100272,164.68389 29.365956,164.68389 C27.8218849,164.68389 26.5703356,163.43234 26.5703356,161.887344 C26.5703356,160.343272 27.8218849,159.090797 29.365956,159.090797 C30.9100272,159.090797 32.1625022,160.343272 32.1625022,161.887344" id="Fill-118" fill="#2369E5"></path>
                    <path d="M58.7320972,161.887344 C58.7320972,163.43234 57.4796222,164.68389 55.9355511,164.68389 C54.3924056,164.68389 53.1399306,163.43234 53.1399306,161.887344 C53.1399306,160.343272 54.3924056,159.090797 55.9355511,159.090797 C57.4796222,159.090797 58.7320972,160.343272 58.7320972,161.887344" id="Fill-120" fill="#2369E5"></path>
                    <path d="M85.3026179,161.887344 C85.3026179,163.43234 84.050143,164.68389 82.5060718,164.68389 C80.9620007,164.68389 79.7104514,163.43234 79.7104514,161.887344 C79.7104514,160.343272 80.9620007,159.090797 82.5060718,159.090797 C84.050143,159.090797 85.3026179,160.343272 85.3026179,161.887344" id="Fill-122" fill="#2369E5"></path>
                    <path d="M111.872306,161.887344 C111.872306,163.43234 110.619831,164.68389 109.075759,164.68389 C107.532614,164.68389 106.280139,163.43234 106.280139,161.887344 C106.280139,160.343272 107.532614,159.090797 109.075759,159.090797 C110.619831,159.090797 111.872306,160.343272 111.872306,161.887344" id="Fill-124" fill="#2369E5"></path>
                    <path d="M138.441901,161.887344 C138.441901,163.43234 137.190351,164.68389 135.645354,164.68389 C134.102209,164.68389 132.849734,163.43234 132.849734,161.887344 C132.849734,160.343272 134.102209,159.090797 135.645354,159.090797 C137.190351,159.090797 138.441901,160.343272 138.441901,161.887344" id="Fill-126" fill="#2369E5"></path>
                    <path d="M165.012514,161.887344 C165.012514,163.43234 163.760039,164.68389 162.215968,164.68389 C160.672822,164.68389 159.420347,163.43234 159.420347,161.887344 C159.420347,160.343272 160.672822,159.090797 162.215968,159.090797 C163.760039,159.090797 165.012514,160.343272 165.012514,161.887344" id="Fill-128" fill="#2369E5"></path>
                    <path d="M191.582109,161.887344 C191.582109,163.43234 190.329634,164.68389 188.785563,164.68389 C187.242417,164.68389 185.989942,163.43234 185.989942,161.887344 C185.989942,160.343272 187.242417,159.090797 188.785563,159.090797 C190.329634,159.090797 191.582109,160.343272 191.582109,161.887344" id="Fill-130" fill="#2369E5"></path>
                    <path d="M218.15263,161.887344 C218.15263,163.43234 216.900155,164.68389 215.356084,164.68389 C213.812012,164.68389 212.560463,163.43234 212.560463,161.887344 C212.560463,160.343272 213.812012,159.090797 215.356084,159.090797 C216.900155,159.090797 218.15263,160.343272 218.15263,161.887344" id="Fill-132" fill="#2369E5"></path>
                    <g id="Group-136" transform="translate(0.000000, 185.006199)">
                        <mask id="mask-53" fill="white">
                            <use xlink:href="#path-52"></use>
                        </mask>
                        <g id="Clip-135"></g>
                        <path d="M5.59188884,3.24282712 C5.59188884,4.78689827 4.33941386,6.03937325 2.79534271,6.03937325 C1.25219727,6.03937325 -0.000277710638,4.78689827 -0.000277710638,3.24282712 C-0.000277710638,1.69783027 1.25219727,0.446280996 2.79534271,0.446280996 C4.33941386,0.446280996 5.59188884,1.69783027 5.59188884,3.24282712" id="Fill-134" fill="#2369E5" mask="url(#mask-53)"></path>
                    </g>
                    <path d="M32.1625022,188.249026 C32.1625022,189.793097 30.9100272,191.045572 29.365956,191.045572 C27.8218849,191.045572 26.5703356,189.793097 26.5703356,188.249026 C26.5703356,186.704029 27.8218849,185.45248 29.365956,185.45248 C30.9100272,185.45248 32.1625022,186.704029 32.1625022,188.249026" id="Fill-137" fill="#2369E5"></path>
                    <path d="M58.7320972,188.249026 C58.7320972,189.793097 57.4796222,191.045572 55.9355511,191.045572 C54.3924056,191.045572 53.1399306,189.793097 53.1399306,188.249026 C53.1399306,186.704029 54.3924056,185.45248 55.9355511,185.45248 C57.4796222,185.45248 58.7320972,186.704029 58.7320972,188.249026" id="Fill-139" fill="#2369E5"></path>
                    <path d="M85.3026179,188.249026 C85.3026179,189.793097 84.050143,191.045572 82.5060718,191.045572 C80.9620007,191.045572 79.7104514,189.793097 79.7104514,188.249026 C79.7104514,186.704029 80.9620007,185.45248 82.5060718,185.45248 C84.050143,185.45248 85.3026179,186.704029 85.3026179,188.249026" id="Fill-141" fill="#2369E5"></path>
                    <path d="M111.872306,188.249026 C111.872306,189.793097 110.619831,191.045572 109.075759,191.045572 C107.532614,191.045572 106.280139,189.793097 106.280139,188.249026 C106.280139,186.704029 107.532614,185.45248 109.075759,185.45248 C110.619831,185.45248 111.872306,186.704029 111.872306,188.249026" id="Fill-143" fill="#2369E5"></path>
                    <path d="M138.441901,188.249026 C138.441901,189.793097 137.190351,191.045572 135.645354,191.045572 C134.102209,191.045572 132.849734,189.793097 132.849734,188.249026 C132.849734,186.704029 134.102209,185.45248 135.645354,185.45248 C137.190351,185.45248 138.441901,186.704029 138.441901,188.249026" id="Fill-145" fill="#2369E5"></path>
                    <path d="M165.012514,188.249026 C165.012514,189.793097 163.760039,191.045572 162.215968,191.045572 C160.672822,191.045572 159.420347,189.793097 159.420347,188.249026 C159.420347,186.704029 160.672822,185.45248 162.215968,185.45248 C163.760039,185.45248 165.012514,186.704029 165.012514,188.249026" id="Fill-147" fill="#2369E5"></path>
                    <path d="M191.582109,188.249026 C191.582109,189.793097 190.329634,191.045572 188.785563,191.045572 C187.242417,191.045572 185.989942,189.793097 185.989942,188.249026 C185.989942,186.704029 187.242417,185.45248 188.785563,185.45248 C190.329634,185.45248 191.582109,186.704029 191.582109,188.249026" id="Fill-149" fill="#2369E5"></path>
                    <path d="M218.15263,188.249026 C218.15263,189.793097 216.900155,191.045572 215.356084,191.045572 C213.812012,191.045572 212.560463,189.793097 212.560463,188.249026 C212.560463,186.704029 213.812012,185.45248 215.356084,185.45248 C216.900155,185.45248 218.15263,186.704029 218.15263,188.249026" id="Fill-151" fill="#2369E5"></path>
                    <g id="Group-155" transform="translate(0.000000, 210.925858)">
                        <mask id="mask-55" fill="white">
                            <use xlink:href="#path-54"></use>
                        </mask>
                        <g id="Clip-154"></g>
                        <path d="M5.59188884,3.68401676 C5.59188884,5.22808791 4.33941386,6.48056289 2.79534271,6.48056289 C1.25219727,6.48056289 -0.000277710638,5.22808791 -0.000277710638,3.68401676 C-0.000277710638,2.13994561 1.25219727,0.88747063 2.79534271,0.88747063 C4.33941386,0.88747063 5.59188884,2.13994561 5.59188884,3.68401676" id="Fill-153" fill="#2369E5" mask="url(#mask-55)"></path>
                    </g>
                    <g id="Group-158" transform="translate(25.919660, 210.925858)">
                        <mask id="mask-57" fill="white">
                            <use xlink:href="#path-56"></use>
                        </mask>
                        <g id="Clip-157"></g>
                        <path d="M6.24284258,3.68401676 C6.24284258,5.22808791 4.9903676,6.48056289 3.44629645,6.48056289 C1.9022253,6.48056289 0.650676026,5.22808791 0.650676026,3.68401676 C0.650676026,2.13994561 1.9022253,0.88747063 3.44629645,0.88747063 C4.9903676,0.88747063 6.24284258,2.13994561 6.24284258,3.68401676" id="Fill-156" fill="#2369E5" mask="url(#mask-57)"></path>
                    </g>
                    <g id="Group-161" transform="translate(52.765021, 210.925858)">
                        <mask id="mask-59" fill="white">
                            <use xlink:href="#path-58"></use>
                        </mask>
                        <g id="Clip-160"></g>
                        <path d="M5.96707591,3.68401676 C5.96707591,5.22808791 4.71460094,6.48056289 3.17052979,6.48056289 C1.62738434,6.48056289 0.374909362,5.22808791 0.374909362,3.68401676 C0.374909362,2.13994561 1.62738434,0.88747063 3.17052979,0.88747063 C4.71460094,0.88747063 5.96707591,2.13994561 5.96707591,3.68401676" id="Fill-159" fill="#2369E5" mask="url(#mask-59)"></path>
                    </g>
                    <g id="Group-164" transform="translate(79.610383, 210.925858)">
                        <mask id="mask-61" fill="white">
                            <use xlink:href="#path-60"></use>
                        </mask>
                        <g id="Clip-163"></g>
                        <path d="M5.69223495,3.68401676 C5.69223495,5.22808791 4.43975997,6.48056289 2.89568883,6.48056289 C1.35161768,6.48056289 0.1000684,5.22808791 0.1000684,3.68401676 C0.1000684,2.13994561 1.35161768,0.88747063 2.89568883,0.88747063 C4.43975997,0.88747063 5.69223495,2.13994561 5.69223495,3.68401676" id="Fill-162" fill="#2369E5" mask="url(#mask-61)"></path>
                    </g>
                    <g id="Group-167" transform="translate(105.530043, 210.925858)">
                        <mask id="mask-63" fill="white">
                            <use xlink:href="#path-62"></use>
                        </mask>
                        <g id="Clip-166"></g>
                        <path d="M6.34226299,3.68401676 C6.34226299,5.22808791 5.08978801,6.48056289 3.54571686,6.48056289 C2.00257141,6.48056289 0.750096434,5.22808791 0.750096434,3.68401676 C0.750096434,2.13994561 2.00257141,0.88747063 3.54571686,0.88747063 C5.08978801,0.88747063 6.34226299,2.13994561 6.34226299,3.68401676" id="Fill-165" fill="#2369E5" mask="url(#mask-63)"></path>
                    </g>
                    <g id="Group-170" transform="translate(132.375404, 210.925858)">
                        <mask id="mask-65" fill="white">
                            <use xlink:href="#path-64"></use>
                        </mask>
                        <g id="Clip-169"></g>
                        <path d="M6.06649632,3.68401676 C6.06649632,5.22808791 4.81494705,6.48056289 3.2699502,6.48056289 C1.72680475,6.48056289 0.47432977,5.22808791 0.47432977,3.68401676 C0.47432977,2.13994561 1.72680475,0.88747063 3.2699502,0.88747063 C4.81494705,0.88747063 6.06649632,2.13994561 6.06649632,3.68401676" id="Fill-168" fill="#2369E5" mask="url(#mask-65)"></path>
                    </g>
                    <g id="Group-173" transform="translate(159.220766, 210.925858)">
                        <mask id="mask-67" fill="white">
                            <use xlink:href="#path-66"></use>
                        </mask>
                        <g id="Clip-172"></g>
                        <path d="M5.79174793,3.68401676 C5.79174793,5.22808791 4.53927295,6.48056289 2.9952018,6.48056289 C1.45205636,6.48056289 0.199581379,5.22808791 0.199581379,3.68401676 C0.199581379,2.13994561 1.45205636,0.88747063 2.9952018,0.88747063 C4.53927295,0.88747063 5.79174793,2.13994561 5.79174793,3.68401676" id="Fill-171" fill="#2369E5" mask="url(#mask-67)"></path>
                    </g>
                    <g id="Group-176" transform="translate(185.140426, 210.925858)">
                        <mask id="mask-69" fill="white">
                            <use xlink:href="#path-68"></use>
                        </mask>
                        <g id="Clip-175"></g>
                        <path d="M6.4416834,3.68401676 C6.4416834,5.22808791 5.18920842,6.48056289 3.64513727,6.48056289 C2.10199182,6.48056289 0.849516843,5.22808791 0.849516843,3.68401676 C0.849516843,2.13994561 2.10199182,0.88747063 3.64513727,0.88747063 C5.18920842,0.88747063 6.4416834,2.13994561 6.4416834,3.68401676" id="Fill-174" fill="#2369E5" mask="url(#mask-69)"></path>
                    </g>
                    <g id="Group-179" transform="translate(211.985787, 210.925858)">
                        <mask id="mask-71" fill="white">
                            <use xlink:href="#path-70"></use>
                        </mask>
                        <g id="Clip-178"></g>
                        <path d="M6.16684243,3.68401676 C6.16684243,5.22808791 4.91436746,6.48056289 3.37029631,6.48056289 C1.82622516,6.48056289 0.574675881,5.22808791 0.574675881,3.68401676 C0.574675881,2.13994561 1.82622516,0.88747063 3.37029631,0.88747063 C4.91436746,0.88747063 6.16684243,2.13994561 6.16684243,3.68401676" id="Fill-177" fill="#2369E5" mask="url(#mask-71)"></path>
                    </g>
                </g>
                <path d="M1398.57956,541.579667 C1389.38256,543.594518 1370.2245,545.504664 1341.09972,547.295957 L1334.376,547.635539 C1333.92889,548.526941 1329.78033,554.582813 1321.94448,565.783346 L1372.69779,564.096757 C1379.4215,564.331635 1383.55874,565.220206 1385.1293,566.790771 C1385.1293,570.599745 1382.33058,573.398463 1376.72749,575.192586 C1365.3034,577.430995 1344.00597,579.457165 1312.86351,581.239969 C1303.4571,598.272816 1298.75672,611.383496 1298.75672,620.569178 C1298.75672,625.501601 1301.10266,627.960737 1305.81153,627.960737 C1309.84123,627.960737 1317.91195,626.169445 1330.00672,622.584029 C1342.10714,618.998613 1359.64087,611.827781 1382.61357,601.071534 C1405.5806,590.318117 1427.70718,577.430995 1448.99328,562.421488 C1450.56385,561.074481 1451.62504,560.403807 1452.18535,560.403807 C1452.75132,560.403807 1453.02581,560.853753 1453.02581,561.742325 C1453.02581,562.642216 1451.0619,566.45119 1447.14822,573.177735 C1443.22322,579.901451 1437.28621,588.079708 1429.32868,597.709676 C1421.37398,607.350964 1412.35809,616.697948 1402.27251,625.776096 C1392.1926,634.857074 1380.03841,642.641982 1365.80428,649.13365 C1351.57015,655.636638 1338.47079,658.882472 1326.48073,658.882472 C1314.48501,658.882472 1305.0786,656.748768 1298.24735,652.495508 C1291.40478,648.242249 1286.41859,642.981564 1283.29161,636.702134 C1276.78862,624.154594 1273.31923,612.838037 1272.87494,602.749633 L1272.53536,596.362669 C1272.53536,592.556525 1272.87494,588.631528 1273.54279,584.598997 L1238.58286,585.948833 C1237.69146,586.169561 1236.45199,586.288415 1234.88991,586.288415 C1233.32218,586.288415 1232.09119,585.609252 1231.1913,584.270734 C1231.1913,582.244564 1235.67661,578.43559 1244.64156,572.838154 L1249.33911,569.815877 C1252.70097,568.700918 1262.00267,567.91705 1277.23574,567.461445 C1279.02703,561.414063 1281.16073,556.034524 1283.63119,551.325659 L1260.43494,552.333085 C1259.53222,552.556642 1258.30123,552.672666 1256.74199,552.672666 C1255.1601,552.672666 1253.93195,552.007652 1253.04055,550.657815 C1253.04055,548.642964 1257.63339,544.833991 1266.81624,539.222405 L1271.18835,536.202958 C1273.42676,535.532285 1280.71362,534.853121 1293.04043,534.185278 C1312.97953,502.140094 1342.61651,474.583047 1381.93723,451.502817 C1421.26927,428.422587 1458.62608,416.882472 1494.03029,416.882472 C1507.24851,416.882472 1519.51872,419.627424 1530.83811,425.114496 C1542.15467,430.607229 1547.8087,438.90151 1547.8087,449.986019 C1547.8087,461.081848 1541.47833,473.066249 1528.82326,485.9562 C1516.15969,498.840492 1501.03133,509.820298 1483.44667,518.889956 C1465.84785,527.968104 1450.44782,532.510008 1437.22961,532.510008 C1431.18506,532.510008 1424.90563,530.82342 1418.40547,527.461562 C1411.90248,524.096874 1408.65665,519.399329 1408.65665,513.340627 C1408.65665,509.990088 1411.35066,507.075346 1416.72737,504.61338 C1435.76941,496.995432 1450.10824,489.592553 1459.74953,482.424552 C1461.76438,480.186143 1463.28118,479.059864 1464.29143,479.059864 C1465.29603,479.059864 1465.79691,479.962585 1465.79691,481.753878 C1465.79691,484.895008 1461.98794,488.585128 1454.37282,492.838388 C1448.99328,496.879409 1446.31059,499.117817 1446.31059,499.562103 C1446.31059,500.017709 1446.41529,500.244096 1446.63885,500.244096 C1451.12416,500.244096 1464.78666,491.618724 1487.64616,474.362318 C1510.50566,457.103083 1521.92975,446.010084 1521.92975,441.086151 C1521.92975,437.947851 1518.90747,436.377286 1512.86009,436.377286 C1482.82976,436.377286 1453.41916,445.512031 1424.63113,463.764543 C1395.83178,482.031203 1369.88492,504.836938 1346.81601,532.170427 L1394.54703,530.483838 C1401.26226,530.715886 1405.41081,531.610117 1406.98138,533.177852 C1406.98138,536.986826 1404.17983,539.785544 1398.57956,541.579667" id="Fill-180" fill="#FFD618" opacity="0.203659784"></path>
            </g>
        </g>
    </g>
</svg>