<?xml version="1.0" encoding="UTF-8"?>
<svg width="69px" height="69px" viewBox="0 0 69 69" version="1.1" xmlns="http://www.w3.org/2000/svg" xmlns:xlink="http://www.w3.org/1999/xlink">
    <title>92D43EE3-903D-4B74-8339-4A04D939419B</title>
    <g id="Page-1" stroke="none" stroke-width="1" fill="none" fill-rule="evenodd">
        <g id="Home---Desktop" transform="translate(-1081.000000, -2665.000000)">
            <g id="Group-4" transform="translate(978.000000, 2665.500000)">
                <g id="Group-2" transform="translate(103.000000, 0.000000)">
                    <g id="sanduhr-icon" transform="translate(0.500000, 0.000000)">
                        <circle id="Oval" fill="#2369E5" cx="34" cy="34" r="34"></circle>
                        <g id="hourglass-end" transform="translate(20.500000, 16.000000)" fill="#FFFFFF" fill-rule="nonzero">
                            <path d="M25.875,2.25 L26.15625,2.25 C26.6222109,2.25 27,1.87221094 27,1.40625 L27,0.84375 C27,0.377789062 26.6222109,0 26.15625,0 L0.84375,0 C0.377789063,0 0,0.377789062 0,0.84375 L0,1.40625 C0,1.87221094 0.377789063,2.25 0.84375,2.25 L1.125,2.25 C1.125,8.70616406 4.22634375,15.8665078 10.2407344,18 C4.2069375,20.1403828 1.125,27.3147891 1.125,33.75 L0.84375,33.75 C0.377789063,33.75 0,34.1277891 0,34.59375 L0,35.15625 C0,35.6222109 0.377789063,36 0.84375,36 L26.15625,36 C26.6222109,36 27,35.6222109 27,35.15625 L27,34.59375 C27,34.1277891 26.6222109,33.75 26.15625,33.75 L25.875,33.75 C25.875,27.2938359 22.7736562,20.1334922 16.7592656,18 C22.7930625,15.8596172 25.875,8.68521094 25.875,2.25 Z M3.375,2.25 L23.625,2.25 C23.625,10.0165078 19.0918828,16.3125 13.5,16.3125 C7.90811719,16.3125 3.375,10.0165078 3.375,2.25 Z M23.625,33.75 L3.375,33.75 C3.375,25.9834922 7.90811719,19.6875 13.5,19.6875 C19.0918828,19.6875 23.625,25.9834922 23.625,33.75 Z M6.91727344,29.25 L20.0827969,29.25 C20.4650617,29.2499729 20.7996702,29.5067406 20.8985625,29.8759922 C20.951113,30.0724971 20.9993822,30.2701219 21.0433359,30.4687266 C21.1603359,30.9976172 20.7620859,31.5 20.2203984,31.5 L6.77967188,31.5 C6.23798438,31.5 5.83973438,30.9976172 5.95673438,30.4687266 C6.00032813,30.2715703 6.04863281,30.0738516 6.10150781,29.8759922 C6.20040015,29.5067406 6.53500857,29.2499729 6.91727344,29.25 L6.91727344,29.25 Z M8.03960156,25.67025 C8.19030821,25.4593078 8.34919489,25.2543313 8.51589844,25.0557891 C8.6776875,24.8632734 8.91464063,24.7500703 9.16614844,24.7500703 L17.8339922,24.7500703 C18.0854297,24.7500703 18.3224531,24.8632734 18.4842422,25.0557891 C18.6509073,25.2543623 18.8097928,25.4593373 18.9605391,25.67025 C19.3582969,26.2264219 18.9543516,27 18.2705625,27 L8.72950781,27 C8.04578906,27 7.64184375,26.2263516 8.03960156,25.67025 Z" id="Shape"></path>
                        </g>
                    </g>
                </g>
            </g>
        </g>
    </g>
</svg>