<?xml version="1.0" encoding="UTF-8"?>
<svg width="200px" height="83px" viewBox="0 0 200 83" version="1.1" xmlns="http://www.w3.org/2000/svg" xmlns:xlink="http://www.w3.org/1999/xlink">
    <title>BE24F95C-E359-43D9-B672-23D9B313B9D2</title>
    <defs>
        <polygon id="path-1" points="0.19184716 0.770805317 50.5345972 0.770805317 50.5345972 20.9408075 0.19184716 20.9408075"></polygon>
    </defs>
    <g id="Page-1" stroke="none" stroke-width="1" fill="none" fill-rule="evenodd">
        <g id="Home---Desktop" transform="translate(-48.000000, -36.000000)">
            <g id="steuergott-logo-neg" transform="translate(48.000000, 36.000000)">
                <g id="Group-3" transform="translate(148.815166, 0.176967)">
                    <mask id="mask-2" fill="white">
                        <use xlink:href="#path-1"></use>
                    </mask>
                    <g id="Clip-2"></g>
                    <path d="M3.71601896,12.704455 C4.95203791,13.9404739 8.9349763,14.775545 15.6686256,15.211564 C22.4022749,15.6466351 29.0032227,15.6722275 35.4695735,15.2845498 C41.9359242,14.8959242 45.5937441,14.2788626 46.4420853,13.4314692 C46.5141232,13.3575355 46.5018009,13.2731754 46.4051185,13.1764929 C45.5823697,12.3537441 43.9406635,11.6807583 41.4828436,11.161327 C39.0240758,10.6390521 36.5112796,10.3072986 33.944455,10.161327 C31.3766825,10.0153555 29.130237,9.92436019 27.2041706,9.8892891 C25.2781043,9.85232227 24.1340284,9.87127962 23.7709953,9.94331754 C23.4070142,10.0153555 23.1766825,10.0030332 23.0809479,9.90635071 C23.0316588,9.85800948 23.0686256,9.77364929 23.1899526,9.65232227 L23.8070142,9.17933649 C24.944455,8.57554502 27.1738389,7.96890995 30.4923223,7.36417062 L32.2003791,7.0371564 C32.6837915,6.89118483 32.9567773,6.78881517 33.0174408,6.72720379 C33.0781043,6.66843602 33.0837915,6.61251185 33.0363981,6.56322275 C32.8420853,6.36985782 32.308436,6.24947867 31.4363981,6.20113744 C27.972891,6.03241706 24.6970616,6.0864455 21.60891,6.36511848 C18.5207583,6.6428436 15.9956398,7.02483412 14.0345024,7.51014218 C12.0714692,7.9935545 10.3036967,8.56227488 8.7292891,9.21630332 C6.30748815,10.1859716 4.81080569,10.9546919 4.24303318,11.5234123 C3.67336493,12.0921327 3.49895735,12.4873934 3.71601896,12.704455 M43.3169668,7.90824645 C46.1757346,8.5385782 48.20891,9.45800948 49.4212322,10.6703318 C50.5352923,11.783128 50.8136493,12.91109 50.2572512,14.0485308 C50.0629384,14.4352607 49.8809479,14.7148815 49.7112796,14.8845498 C48.7909005,15.8049289 46.8288152,16.7243602 43.8259716,17.6456872 C40.8221801,18.5660664 37.316019,19.3101422 33.308436,19.8798104 C29.2980095,20.4485308 25.2477725,20.7935545 21.1548815,20.9158294 C17.0619905,21.0362085 13.2345024,20.7215166 9.6743128,19.9708057 C6.11412322,19.2191469 3.52170616,18.0324171 1.89990521,16.4096682 C0.76056872,15.2712796 0.190900474,13.732891 0.19184716,11.7963981 C0.19184716,9.85990521 0.887582938,8.1935545 2.28094787,6.80018957 C3.67336493,5.40872038 5.62312796,4.23241706 8.13023697,3.27601896 C10.6363981,2.31962085 13.4581991,1.64189573 16.5956398,1.24189573 C19.7311848,0.841895735 22.8913744,0.696872038 26.0781043,0.805876777 C29.2629384,0.914881517 32.3150711,1.45990521 35.2335545,2.44094787 C38.15109,3.42104265 40.4951659,4.79545024 42.2638863,6.56322275 C42.7482464,7.04758294 43.0989573,7.49687204 43.3169668,7.90824645" id="Fill-1" fill="#FFD618" mask="url(#mask-2)"></path>
                </g>
                <path d="M68.4524171,26.3848341 C68.6552607,26.3582938 68.7690047,26.4293839 68.7917536,26.5990521 C68.8732701,27.2104265 67.9140284,28.4966825 65.9121327,30.4578199 C63.9121327,32.4189573 62.5377251,33.450237 61.7917536,33.5507109 C61.6893839,33.5630332 61.6344076,33.5364929 61.6249289,33.4682464 C61.5699526,33.0606635 62.4723223,31.8085308 64.3358294,29.7099526 C66.1964929,27.6123223 67.5690047,26.5033175 68.4524171,26.3848341 M107.561422,21.1478673 C107.765213,21.1203791 107.878957,21.1914692 107.900758,21.3611374 C107.982275,21.9725118 107.022085,23.2587678 105.022085,25.2199052 C103.021137,27.1810427 101.64673,28.2123223 100.89981,28.3118483 C100.798389,28.3260664 100.742464,28.2995261 100.733934,28.2303318 C100.678957,27.8236967 101.582275,26.5706161 103.444834,24.4720379 C105.306445,22.3753555 106.678009,21.2663507 107.561422,21.1478673 M36.0675829,35.8028436 C35.6220853,32.4748815 32.2192417,31.2028436 25.8618957,31.9838863 C18.8002844,32.9298578 15.1945972,32.842654 15.0448341,31.7232227 C14.9500474,31.0094787 15.4979147,30.0729858 16.6903318,28.9099526 C23.0685308,22.8720379 31.1822749,19.1943128 41.0287204,17.8748815 C42.5216114,17.6758294 43.2988626,17.7962085 43.3576303,18.2369668 C43.4713744,19.0862559 42.58891,19.9819905 40.710237,20.9241706 C38.8325118,21.8672986 36.9519431,22.7241706 35.0675829,23.4938389 C33.1832227,24.2654028 32.2666351,24.8379147 32.316872,25.2113744 C32.3576303,25.5194313 33.0998104,25.6293839 34.5187678,25.549763 C34.6893839,25.8587678 35.2363033,26.0417062 36.1652133,26.0947867 C36.4363033,27.0947867 38.8306161,27.2938389 43.3462559,26.6881517 L46.5405687,26.157346 C47.2533649,26.0616114 47.6230332,26.1156398 47.6514692,26.3194313 C47.6780095,26.5232227 47.5547867,26.7649289 47.2818009,27.042654 C44.4088152,30.3649289 42.2135545,33.5279621 40.6979147,36.52891 C39.1822749,39.5317536 38.5216114,41.763981 38.7178199,43.2236967 C38.9130806,44.6834123 39.4145024,45.7914692 40.2249289,46.5469194 C41.0334597,47.3004739 41.8543128,47.6236967 42.6865403,47.5127962 C43.5187678,47.4009479 44.2287204,47.2189573 44.8163981,46.9687204 C46.4410427,46.1971564 49.1604739,43.7933649 52.9756398,39.7582938 C53.7424645,38.9687204 54.5348815,38.121327 55.3481517,37.2255924 C55.1604739,38.149763 55.1130806,39.0331754 55.2249289,39.8720379 C55.6524171,43.0635071 57.1727962,44.4843602 59.7870142,44.1345972 C61.9936493,43.8388626 64.7197156,42.5146919 67.9642654,40.1611374 C69.3216114,39.1772512 70.58891,38.1810427 71.8012322,37.1781991 C71.4486256,38.3109005 71.3187678,39.2473934 71.417346,39.9848341 C71.5860664,41.2417062 72.3490995,41.7772512 73.7073934,41.5962085 C74.2163981,41.5279621 74.8372512,41.2028436 75.5727962,40.6208531 C76.3064455,40.0388626 76.9509953,39.4341232 77.5064455,38.8056872 C78.0618957,38.1791469 78.7547867,37.3516588 79.5851185,36.3241706 C80.4145024,35.2976303 80.9140284,34.7725118 81.0846445,34.749763 C81.288436,34.7232227 81.3945972,34.743128 81.4040758,34.8113744 C81.4135545,34.8796209 81.403128,34.9402844 81.3775355,34.9962085 C81.3490995,35.0521327 81.3235071,35.1156398 81.2998104,35.1876777 C81.274218,35.2606635 81.2448341,35.3592417 81.209763,35.4853081 C81.1746919,35.6104265 81.0448341,36.0691943 80.8230332,36.8587678 C80.6002844,37.6492891 80.5140284,38.2303318 80.5642654,38.6047393 C80.8050237,40.4028436 81.5036019,41.2255924 82.6571564,41.07109 C83.3699526,40.9763033 84.0201896,40.8018957 84.609763,40.5507109 C86.4334597,39.7175355 89.1320379,37.4227488 92.7073934,33.6606635 C93.2874882,33.0521327 93.8912796,32.4104265 94.5092891,31.7478673 C94.2761137,32.7601896 94.2126066,33.7232227 94.3348815,34.6341232 C94.7614218,37.8255924 96.2808531,39.2464455 98.896019,38.8966825 C101.102654,38.6018957 103.827773,37.2767773 107.07327,34.9241706 C110.31782,32.571564 113.148152,30.1620853 115.566161,27.6966825 C117.405972,25.8199052 118.968057,24.1014218 120.259052,22.5383886 C120.631564,22.8009479 121.216398,22.9990521 122.03346,23.1232227 C123.058104,23.2815166 123.858104,23.3203791 124.435355,23.242654 C121.923507,25.6530806 120.316872,27.5184834 119.612607,28.8388626 C118.906445,30.1601896 118.641043,31.4654028 118.81545,32.7563981 C119.132986,35.1327014 120.479905,36.1611374 122.856209,35.8436019 C124.384171,35.6398104 126.677062,34.1137441 129.733934,31.2682464 C132.792701,28.4218009 135.494123,25.5725118 137.843886,22.7175355 C140.190806,19.8625592 141.337725,18.2246445 141.279905,17.7981043 C141.223033,17.3744076 141.075166,17.1781991 140.838199,17.2094787 C131.309289,26.0540284 125.627773,30.5990521 123.794597,30.8454976 C123.624929,30.8672986 123.532038,30.8274882 123.519716,30.7270142 C123.43346,30.0815166 123.811659,29.1668246 124.654313,27.9829384 C125.498863,26.7990521 126.423981,25.707109 127.430616,24.707109 C128.437251,23.7099526 129.471374,22.7241706 130.533934,21.7516588 C131.596493,20.7800948 132.226825,20.2037915 132.42872,20.0208531 C132.62872,19.8388626 132.712133,19.6293839 132.679905,19.3905213 C132.648626,19.1535545 132.132038,18.5317536 131.133934,17.5241706 C130.865687,17.3194313 130.466635,17.250237 129.940569,17.321327 C129.413555,17.3924171 128.729194,17.6312796 127.884645,18.0369668 C127.041043,18.4445498 126.372796,18.6805687 125.881801,18.7459716 C125.387962,18.8123223 124.164265,18.5090047 122.207867,17.8379147 C120.251469,17.1668246 119.087488,16.856872 118.714028,16.9061611 C117.729194,17.0388626 117.030616,17.2436019 116.618294,17.5241706 C116.207867,17.8047393 116.04673,18.2834123 116.138673,18.9620853 C116.150995,19.064455 116.224929,19.2274882 116.358578,19.4521327 C116.760474,20.1232227 117.553839,20.7601896 118.740569,21.3611374 C116.903602,23.1279621 115.137725,24.7819905 113.443886,26.321327 C113.319716,26.4521327 113.214502,26.5753555 113.124455,26.6890995 C110.69981,28.785782 108.63346,30.4199052 106.935829,31.5734597 C104.115924,33.4890995 101.416398,34.6199052 98.8363033,34.9649289 C98.4107109,34.8843602 98.1614218,34.5630332 98.0855924,34.0018957 C98.0107109,33.4417062 98.1832227,32.6767773 98.6069194,31.7033175 C99.0296682,30.7317536 99.3595261,30.2293839 99.5974408,30.1971564 C99.8344076,30.1658768 100.02872,30.1924171 100.178483,30.2748815 C100.51782,30.7488152 100.969005,30.9459716 101.529194,30.8720379 C102.088436,30.7971564 103.184171,30.2094787 104.816398,29.1090047 C106.449573,28.0094787 107.969005,26.6483412 109.376588,25.0246445 C110.784171,23.4028436 111.412607,22.0312796 111.261896,20.9118483 C111.179431,20.2995261 110.748152,19.7194313 109.966161,19.1668246 C109.183223,18.6151659 108.385118,18.3933649 107.569953,18.5033175 C105.736777,18.7478673 103.727299,19.7516588 101.545308,21.5118483 C100.186066,22.6094787 98.9860664,23.8654028 97.9121327,25.2445498 C93.7367773,29.1137441 89.7983886,32.3924171 86.102654,35.0625592 C85.7235071,35.321327 85.4562085,35.4606635 85.3036019,35.4815166 C85.1509953,35.5014218 85.0637915,35.4274882 85.0410427,35.256872 C84.896019,34.1706161 86.9092891,31.0151659 91.0827488,25.7905213 C92.4732701,24.0492891 93.1538389,23.0597156 93.1206635,22.8218009 C93.0438863,22.2454976 92.1908057,22.0654028 90.5604739,22.2834123 C89.7121327,22.3981043 89.2438863,22.7706161 89.1557346,23.4047393 C88.5614218,24.3838863 87.1462559,26.0075829 84.9092891,28.2767773 C82.6732701,30.5459716 80.6761137,32.4720379 78.9178199,34.0549763 C78.2647393,34.5914692 77.8012322,34.878673 77.5301422,34.9146919 C77.2581043,34.9516588 77.1064455,34.8511848 77.0751659,34.6132701 C77.0429384,34.3763033 77.1908057,33.87109 77.5197156,33.1023697 C77.8486256,32.3317536 78.46,31.3421801 79.352891,30.1345972 C79.8846445,29.414218 80.3557346,28.7819905 80.7794313,28.2180095 C81.3254028,27.5696682 81.8325118,26.943128 82.288436,26.3469194 C82.5576303,26.0341232 82.6694787,25.7080569 82.623981,25.3687204 C82.5784834,25.0293839 82.3860664,24.7611374 82.0495735,24.563981 C82.017346,24.5962085 81.9623697,24.6483412 81.8912796,24.7165877 C81.8609479,24.6947867 81.8372512,24.6691943 81.8059716,24.6483412 C81.4647393,24.4180095 81.1064455,24.3270142 80.7329858,24.3772512 C79.7187678,24.5488152 78.1908057,26.0492891 76.1519431,28.878673 C75.4789573,29.8123223 74.8761137,30.7374408 74.3329858,31.6540284 C71.7690047,33.8862559 69.5983886,35.6066351 67.8268246,36.8104265 C65.0059716,38.7270142 62.3073934,39.856872 59.7272986,40.2018957 C59.3017062,40.121327 59.0514692,39.8 58.9756398,39.2407583 C58.9017062,38.6805687 59.074218,37.9137441 59.4979147,36.9412322 C59.9206635,35.9687204 60.2505213,35.4663507 60.488436,35.4350711 C60.7263507,35.4037915 60.9197156,35.4293839 61.0694787,35.5127962 C61.4088152,35.985782 61.8590521,36.1838863 62.4192417,36.1099526 C62.9794313,36.0350711 64.0751659,35.4473934 65.7073934,34.3459716 C67.3396209,33.2473934 68.86,31.8862559 70.2675829,30.2635071 C71.674218,28.6417062 72.302654,27.2691943 72.1519431,26.1488152 C72.0713744,25.5374408 71.6381991,24.9563981 70.8562085,24.4037915 C70.074218,23.8530806 69.2751659,23.6312796 68.4609479,23.7402844 C66.6277725,23.985782 64.6182938,24.9895735 62.4353555,26.749763 C61.1453081,27.7914692 59.9993365,28.9763033 58.9661611,30.2729858 C54.3794313,34.5781991 49.6438863,38.6682464 44.7396209,42.5203791 C44.2230332,42.7962085 43.8391469,42.9526066 43.5851185,42.985782 C43.3301422,43.0208531 43.1092891,42.9895735 42.9235071,42.892891 C42.7377251,42.7971564 42.6344076,42.664455 42.6116588,42.4947867 C42.4704265,41.442654 43.274218,39.450237 45.0258768,36.5203791 C46.7756398,33.5905213 48.6656872,30.8672986 50.696019,28.3478673 C52.7254028,25.8303318 54.0609479,24.5099526 54.7017062,24.3905213 C56.1519431,24.1270142 58.8107109,23.521327 62.6751659,22.571564 C66.538673,21.6218009 68.795545,21.0511848 69.4448341,20.8606635 C70.0922275,20.67109 70.3993365,20.4398104 70.3623697,20.1668246 C70.3121327,19.7943128 69.8969668,19.5383886 69.1197156,19.4009479 C67.4637915,18.6559242 64.9566825,18.507109 61.595545,18.957346 L59.0050237,19.3554502 C58.5282464,19.4199052 58.2761137,19.3336493 58.2438863,19.0947867 C58.2410427,18.8199052 58.2874882,18.3981043 58.3860664,17.8322275 L59.4211374,15.878673 C59.6325118,15.4009479 59.7272986,15.0777251 59.7036019,14.9080569 C59.6363033,14.3981043 58.9917536,14.2255924 57.7690047,14.3895735 C56.5462559,14.5535545 55.8618957,14.8521327 55.7121327,15.2872038 L52.8258768,20.4417062 C50.2154502,20.9952607 47.781327,21.5554502 45.5140284,22.1222749 C47.0154502,20.8834123 47.7159242,19.8123223 47.595545,18.9137441 C47.4363033,17.7260664 46.9225592,16.7317536 46.0552607,15.9327014 C45.1879621,15.1327014 44.2410427,14.5772512 43.2145024,14.2654028 C42.1879621,13.9535545 40.9140284,13.7345972 39.3945972,13.6094787 C37.874218,13.4862559 36.4514692,13.5118483 35.1282464,13.6881517 C31.4107109,14.3241706 28.0163981,15.2976303 24.9443602,16.6085308 C21.8694787,17.9175355 19.4363033,19.2890995 17.6410427,20.721327 C15.845782,22.1545024 14.3301422,23.6199052 13.0969668,25.1146919 C11.8628436,26.6104265 11.0211374,27.8729858 10.5718483,28.8995261 C10.1216114,29.9279621 9.92824645,30.6796209 9.99175355,31.1554502 C10.2059716,32.7516588 11.0050237,33.9412322 12.3879621,34.7222749 C12.9509953,35.0616114 13.6874882,35.3260664 14.5936493,35.5156398 C15.5007583,35.7052133 16.5197156,35.8369668 17.6533649,35.9099526 C18.7860664,35.9829384 20.9481517,35.8047393 24.1396209,35.3772512 L29.3064455,34.478673 C31.0713744,34.2417062 32.0050237,34.4985782 32.1045498,35.2445498 C32.2590521,36.3981043 31.2154502,37.7658768 28.9737441,39.3440758 C26.7301422,40.9232227 24.096019,42.3478673 21.0704265,43.6170616 C18.0419905,44.8872038 15.1917536,45.9763033 12.5130806,46.8881517 C9.83630332,47.8 8.1585782,48.2995261 7.47895735,48.3914692 C6.80028436,48.4815166 6.45336493,48.4777251 6.44009479,48.3744076 C6.42587678,48.2729858 6.87232227,47.9886256 7.77753555,47.5222749 C8.19744076,47.2938389 8.57848341,47.0521327 8.92445498,46.7981043 C9.29127962,46.4369668 9.4656872,46.1905213 9.44767773,46.0540284 C9.43725118,45.9867299 9.34909953,45.9630332 9.17943128,45.9867299 C9.00881517,46.0085308 8.79364929,46.0729858 8.53014218,46.1763033 C7.47800948,46.836019 4.97943128,47.6549763 1.03156398,48.6322275 C0.290331754,48.7668246 -0.0518483412,49.0540284 0.00691943128,49.4957346 C0.187962085,50.8530806 1.34436019,51.8739336 3.47421801,52.5554502 C5.6050237,53.2379147 7.57090047,53.4587678 9.36995261,53.2189573 C13.2012322,52.6701422 17.2182938,51.5109005 21.4230332,49.7383886 C25.6249289,47.9649289 29.1974408,45.7943128 32.1367773,43.2236967 C35.0751659,40.6521327 36.3860664,38.1791469 36.0675829,35.8028436" id="Fill-4" fill="#FFFFFF"></path>
                <path d="M111.754408,50.2916588 C110.085213,52.0035071 108.212227,53.7324171 106.133555,55.4764929 C104.054882,57.2224645 102.573365,58.1636967 101.691848,58.3011374 C101.554408,58.311564 101.48237,58.2660664 101.474787,58.1636967 C101.444455,57.7883412 102.057725,56.847109 103.313649,55.3381043 C104.567678,53.8309953 106.230237,52.2395261 108.296588,50.5636967 C110.361991,48.889763 112.270047,47.7940284 114.016019,47.2783886 C114.151564,47.2679621 114.223602,47.2963981 114.228341,47.3646445 C114.248246,47.6035071 113.422654,48.5788626 111.754408,50.2916588 M117.568626,47.2300474 C117.543033,46.9058768 117.266256,46.5655924 116.741137,46.2120379 C116.214123,45.8594313 115.848246,45.6907109 115.644455,45.7058768 C115.439716,45.7229384 115.303223,45.7504265 115.238768,45.7892891 C114.775261,45.1390521 113.830237,44.7153555 112.405592,44.5191469 C110.036872,44.9807583 107.773365,46.0025592 105.613175,47.5807583 C103.45109,49.1608531 101.720284,50.8253081 100.415071,52.5769668 C99.1098578,54.3305213 98.0690995,55.9418957 97.2918483,57.4120379 C96.515545,58.8821801 96.1534597,59.9674882 96.2093839,60.6670142 C96.2634123,61.3674882 96.5714692,62.0035071 97.1326066,62.5788626 C97.6937441,63.1523223 98.4349763,63.4035071 99.3572512,63.3305213 C100.279526,63.2575355 101.45109,62.6575355 102.874787,61.5314692 C104.297536,60.4063507 105.300379,59.5200948 105.886161,58.8727014 C106.470047,58.2253081 106.919336,57.7172512 107.234028,57.3475829 C107.54872,56.9807583 107.757251,56.7911848 107.860569,56.7836019 C107.893744,56.7807583 107.791374,57.0129858 107.55346,57.4774408 C107.465308,57.6575355 107.388531,57.782654 107.325972,57.8565877 C107.262464,57.9314692 107.216967,58.0025592 107.188531,58.0736493 L106.249194,59.2300474 C104.558199,61.3219905 103.119336,63.3248341 101.930711,65.2404739 C101.259621,66.3238863 99.4122275,68.8404739 96.3932701,72.790237 C93.630237,76.1011374 91.4747867,78.4006635 89.9278673,79.6916588 C89.2795261,80.1883412 88.8539336,80.4452133 88.6482464,80.4622749 C88.4435071,80.4783886 88.3354502,80.4177251 88.3250237,80.2821801 C88.2472986,79.2916588 89.3193365,77.5314692 91.5420853,75.0025592 C93.7648341,72.4727014 96.2653081,70.0859716 99.0425592,67.8395261 C99.3648341,67.5722275 99.523128,67.3883412 99.5145972,67.2869194 C99.5060664,67.1836019 99.365782,67.1428436 99.0927962,67.1655924 C97.2823697,67.3077725 94.6321327,68.8651185 91.1382938,71.8385782 C87.644455,74.81109 85.9752607,77.2878673 86.1326066,79.26891 C86.2558294,80.8395261 87.0245498,81.861327 88.4349763,82.3343128 C89.1771564,82.5854976 89.9060664,82.6821801 90.6236019,82.6253081 C92.2700474,82.1513744 93.9563033,81.2025592 95.6814218,79.7779147 C97.4074882,78.3532701 98.8643602,76.8982938 100.052986,75.4139336 C101.240664,73.9286256 102.408436,72.2802844 103.555355,70.4727014 C104.700379,68.6641706 105.452038,67.41109 105.809384,66.711564 C106.165782,66.0148815 106.790427,64.889763 107.681422,63.3437915 C108.573365,61.7959242 110.315545,58.9532701 112.909858,54.8129858 C115.503223,50.6736493 116.934502,48.4565877 117.203697,48.1608531 C117.471943,47.8641706 117.594218,47.554218 117.568626,47.2300474" id="Fill-6" fill="#FFFFFF"></path>
                <path d="M159.081043,40.216872 C157.489573,41.8661611 156.091469,43.481327 154.874408,45.0642654 C149.958768,49.2159242 144.899052,53.1381991 139.677251,56.7979147 C139.146445,57.0462559 138.754028,57.1799052 138.498104,57.2007583 C138.24218,57.2206635 138.023223,57.1789573 137.844076,57.0718483 C137.662085,56.9666351 137.566351,56.8272986 137.553081,56.6566825 C137.469668,55.5988626 138.380569,53.6538389 140.287678,50.8225592 C142.194787,47.9922275 144.229858,45.3751659 146.393839,42.9704265 C147.904739,41.2927014 149.036493,40.1931754 149.808057,39.6443602 C151.000474,39.8348815 152.783412,39.8377251 155.17109,39.6481517 L158.390047,39.2917536 C159.106635,39.2358294 159.47346,39.309763 159.489573,39.5145024 C159.505687,39.7201896 159.370142,39.9543128 159.081043,40.216872 M128.761611,48.2282464 C128.136967,49.6860664 127.536019,50.4377251 126.954976,50.4832227 C126.852607,50.4917536 126.68673,50.3495735 126.458294,50.0595261 C126.22891,49.7675829 126.110427,49.5704265 126.101896,49.4690047 C126.069668,49.0585782 126.549289,48.2822749 127.542654,47.1391469 C128.533175,45.996019 129.200474,45.410237 129.541706,45.3827488 C129.609953,45.3770616 129.653555,45.4870142 129.670616,45.7078673 C129.688626,45.9306161 129.385308,46.7704265 128.761611,48.2282464 M123.345498,56.3353555 C121.853555,57.895545 120.560664,58.7201896 119.46872,58.8054976 C119.297156,58.8187678 119.20237,58.68891 119.179621,58.4159242 C119.116114,57.596019 119.645972,56.0424645 120.770142,53.7543128 C121.488626,52.3931754 122.336019,51.1751659 123.317062,50.1012183 C123.351185,50.0983886 123.634597,50.531564 124.167299,51.3998104 C124.7,52.2680569 125.183412,52.8576303 125.620379,53.1656872 C125.595735,53.7182938 124.836493,54.7732701 123.345498,56.3353555 M181.301896,33.7723223 C179.689573,32.9381991 177.192891,32.6538389 173.812796,32.9211374 L171.204265,33.1780095 C170.725592,33.2149763 170.478199,33.1154502 170.459242,32.8765877 C170.471564,32.6007583 170.541706,32.1827488 170.669668,31.6235071 L171.809005,29.7287204 C172.046919,29.2633175 172.158768,28.9448341 172.145498,28.774218 C172.104739,28.2623697 171.469668,28.0547867 170.240284,28.1514692 C169.011848,28.2481517 168.310427,28.509763 168.138863,28.9363033 L164.975829,33.9277725 C164.223223,34.0443602 163.489573,34.1637915 162.765403,34.2832227 C161.399526,34.0680569 159.746445,34.03109 157.787204,34.1855924 L155.178673,34.4434123 C154.7,34.4803791 154.452607,34.3808531 154.433649,34.1410427 C154.445024,33.8661611 154.516114,33.4472038 154.643128,32.8879621 L155.783412,30.9941232 C156.020379,30.5287204 156.133175,30.210237 156.119905,30.0396209 C156.079147,29.5277725 155.444076,29.3192417 154.214692,29.4159242 C152.986256,29.5135545 152.284834,29.7751659 152.112322,30.2017062 L148.950237,35.1922275 C144.469668,35.8908057 140.481991,36.6339336 136.988152,37.4254028 C133.495261,38.216872 131.62891,38.638673 131.392891,38.6917536 C131.156872,38.7438863 130.987204,38.7836967 130.887678,38.8083412 C130.785308,38.8339336 130.667773,38.8595261 130.533175,38.88891 C130.39763,38.9163981 130.335071,38.9988626 130.346445,39.1344076 C130.378673,39.5448341 130.932227,39.8092891 132.007109,39.931564 C132.223223,40.9448341 134.603318,41.2727962 139.145498,40.9135545 L142.363507,40.5571564 C143.081043,40.5002844 143.447867,40.574218 143.463033,40.7799052 C143.480095,40.9846445 143.343602,41.2187678 143.05545,41.4822749 C141.207109,43.3988626 139.613744,45.2709005 138.26872,47.0974408 C137.13981,48.0178199 135.889573,48.9476777 134.510427,49.8870142 C132.570142,51.2092891 131.121801,51.9069194 130.165403,51.9827488 C131.878199,48.8576303 132.658294,46.3400948 132.507583,44.4272986 C132.456398,43.7789573 132.138863,43.2538389 131.558768,42.852891 C131.11327,42.4424645 130.704739,42.2595261 130.330332,42.3059716 C129.954976,42.3533649 129.663033,42.4614218 129.453555,42.6329858 C129.243128,42.8036019 129.069668,42.8870142 128.93128,42.8803791 C128.793839,42.8746919 128.633649,42.8007583 128.451659,42.6595261 C128.266825,42.5211374 128.005213,42.4633175 127.663981,42.4898578 C123.852607,44.2680569 120.772986,46.8225592 118.424171,50.1514692 C116.077251,53.481327 114.990995,56.2718483 115.168246,58.5258768 C115.230806,59.3126066 115.419431,59.9495735 115.732227,60.4405687 C116.291469,61.4272986 117.503791,61.9836967 119.369194,62.1116588 C122.134123,61.8936493 125.269668,59.396019 128.775829,54.616872 C129.191943,54.6538389 129.501896,54.6633175 129.706635,54.6472038 C131.211848,54.5287204 133.030806,53.6718483 135.159716,52.0898578 C134.048815,54.2680569 133.530332,55.9685308 133.625118,57.1732701 C133.740758,58.6405687 134.181517,59.7751659 134.949289,60.5732701 C135.717062,61.3704265 136.518957,61.7372512 137.355924,61.6718483 C138.191943,61.6054976 138.911374,61.4623697 139.512322,61.2443602 C141.175829,60.5618957 144.022275,58.3107109 148.050711,54.48891 C148.874408,53.7268246 149.728436,52.9078673 150.606161,52.038673 C149.898104,53.6424645 149.574882,54.9372512 149.650711,55.9078673 C149.766351,57.3770616 150.208057,58.5107109 150.974882,59.3078673 C151.742654,60.1059716 152.54455,60.4727962 153.381517,60.4064455 C154.217536,60.3400948 154.936967,60.1969668 155.538863,59.9789573 C157.203318,59.2974408 160.048815,57.0453081 164.077251,53.2235071 C165.580569,51.8329858 167.174882,50.2652133 168.858294,48.5163981 C170.541706,46.7685308 171.692417,45.5609479 172.309479,44.8936493 C172.92654,44.2254028 173.393839,43.717346 173.709479,43.3656872 C174.025118,43.0140284 174.169194,42.6690047 174.143602,42.3268246 C174.115166,41.9855924 173.93981,41.7069194 173.612796,41.4927014 C167.858294,46.5163981 161.888626,51.1979147 155.703791,55.5325118 C155.172038,55.7808531 154.779621,55.9154502 154.523697,55.9363033 C154.267773,55.9552607 154.048815,55.9135545 153.869668,55.8064455 C153.688626,55.7012322 153.592891,55.5618957 153.578673,55.3912796 C153.495261,54.3344076 154.406161,52.388436 156.31327,49.5571564 C158.220379,46.7268246 160.25545,44.109763 162.419431,41.7050237 C164.58436,39.3012322 165.9891,38.0566825 166.635545,37.9713744 C168.097156,37.7874882 170.785308,37.3258768 174.695261,36.5874882 C178.605213,35.8500474 180.889573,35.4036019 181.547393,35.2481517 C182.205213,35.0936493 182.522749,34.8794313 182.501896,34.6054976 C182.472512,34.23109 182.071564,33.9533649 181.301896,33.7723223" id="Fill-8" fill="#FFFFFF"></path>
                <path d="M89.0147867,55.7178199 C88.9294787,55.2524171 85.4849289,54.9832227 78.6830332,54.9083412 C71.8792417,54.8325118 66.5958294,54.9784834 62.8337441,55.3434123 C59.069763,55.7092891 55.0290047,56.1727962 50.7114692,56.7339336 C46.934218,57.2249289 44.8166825,57.5367773 44.3541232,57.6704265 C45.3029384,57.2201896 45.7730806,56.9367773 45.7522275,56.823981 C45.7323223,56.7083412 45.2166825,56.6988626 44.2081517,56.7964929 C43.198673,56.8941232 41.3247393,57.2182938 38.5825592,57.7699526 C37.5977251,58.0069194 36.305782,58.2751659 34.7010427,58.5737441 C26.9399052,60.181327 23.1266351,61.3585782 23.2621801,62.1036019 C23.548436,63.688436 26.5617062,64.2012322 32.3048341,63.6429384 C34.6318483,63.4182938 40.92,62.4988626 51.1664455,60.8865403 C61.4157346,59.2761137 72.6147867,57.8078673 84.7721327,56.4865403 L86.6337441,56.3054976 C88.263128,56.1472038 89.0574408,55.9519431 89.0147867,55.7178199" id="Fill-10" fill="#FFFFFF"></path>
            </g>
        </g>
    </g>
</svg>