<?xml version="1.0" encoding="UTF-8"?>
<svg width="275px" height="113px" viewBox="0 0 275 113" version="1.1" xmlns="http://www.w3.org/2000/svg" xmlns:xlink="http://www.w3.org/1999/xlink">
    <title>5E386867-84D7-4AAD-94D1-FB8E1664C0E4</title>
    <defs>
        <polygon id="path-1" points="0.263500919 0.0586964593 69.4089648 0.0586964593 69.4089648 27.762073 0.263500919 27.762073"></polygon>
    </defs>
    <g id="Page-1" stroke="none" stroke-width="1" fill="none" fill-rule="evenodd">
        <g id="Home---Desktop" transform="translate(-358.000000, -5793.000000)">
            <g id="steuergott-logo" transform="translate(358.000000, 5793.000000)">
                <g id="Group-3" transform="translate(204.396734, 0.243063)">
                    <mask id="mask-2" fill="white">
                        <use xlink:href="#path-1"></use>
                    </mask>
                    <g id="Clip-2"></g>
                    <path d="M5.10392965,16.4494924 C6.80159424,18.147157 12.2721361,19.2941221 21.5207629,19.8929915 C30.7693896,20.490559 39.8357517,20.52571 48.7172455,19.993237 C57.5987392,19.4594621 62.6227328,18.6119317 63.7879244,17.448042 C63.886868,17.3464946 63.8699435,17.2306264 63.7371507,17.0978336 C62.6071101,15.9677931 60.3522366,15.0434512 56.9764358,14.3300154 C53.5993331,13.612674 50.1480226,13.1570125 46.6225044,12.9565214 C43.0956843,12.7560304 40.010205,12.6310489 37.3647645,12.582879 C34.7193239,12.5321053 33.1479427,12.5581431 32.6493188,12.6570867 C32.149393,12.7560304 31.8330337,12.7391058 31.7015429,12.606313 C31.6338446,12.5399166 31.6846183,12.4240484 31.8512602,12.2574065 L32.6987906,11.6077634 C34.2610586,10.7784594 37.323104,9.94524981 41.881021,9.11464398 L44.2270268,8.66549192 C44.8909907,8.46500086 45.265935,8.32439673 45.349256,8.23977388 C45.4325769,8.1590567 45.4403883,8.08224519 45.3752938,8.01454691 C45.1084063,7.74896134 44.3754422,7.58362131 43.1777034,7.51722492 C38.4205973,7.28548849 33.9212653,7.35969623 29.6797076,7.74245189 C25.4381499,8.12390567 21.9699149,8.64856735 19.2763045,9.31513504 C16.5800902,9.97909896 14.1520653,10.760233 11.989626,11.6585371 C8.66329698,12.9903706 6.60761263,14.0462034 5.82778051,14.8273374 C5.0453446,15.6084714 4.80579684,16.1513596 5.10392965,16.4494924 M59.495593,9.86192885 C63.4220933,10.7276857 66.2146474,11.990519 67.8797647,13.6556364 C69.4099196,15.1840553 69.7922412,16.7333044 69.0280317,18.2955724 C68.7611443,18.8267436 68.5111814,19.2108011 68.2781431,19.4438394 C67.0140079,20.7079746 64.3190955,21.970808 60.1947079,23.2362451 C56.0690184,24.5003803 51.2533272,25.522364 45.7489362,26.3047999 C40.2406395,27.0859339 34.6776635,27.5598218 29.0561023,27.7277657 C23.4345412,27.8931057 18.1775093,27.4608782 13.2876103,26.4297813 C8.39771141,25.3973825 4.8370422,23.7674162 2.60950837,21.5385805 C1.04463656,19.9750106 0.262200651,17.8620431 0.263500919,15.2022817 C0.263500919,12.5425204 1.21908982,10.2537978 3.13286816,8.34001941 C5.0453446,6.42884486 7.72333238,4.81319934 11.1668315,3.4995923 C14.6090287,2.18598527 18.4847553,1.2551339 22.7940113,0.70573631 C27.1006635,0.15633872 31.4411648,-0.0428504539 35.8181191,0.106866899 C40.1924696,0.256584252 44.3845555,1.00517102 48.3930749,2.35262719 C52.4002924,3.69878148 55.6198664,5.58652201 58.0491932,8.01454691 C58.714459,8.67981271 59.1961583,9.29690858 59.495593,9.86192885" id="Fill-1" fill="#FFD618" mask="url(#mask-2)"></path>
                </g>
                <path d="M94.0189825,35.2394107 C94.2975869,35.2029578 94.4538137,35.3005996 94.4850591,35.5336379 C94.5970216,36.3733569 93.2795089,38.1400217 90.5299172,40.8336322 C87.7829293,43.5272426 85.8951887,44.943699 84.8706013,45.0816993 C84.7299971,45.0986239 84.6544875,45.062171 84.6414686,44.9684349 C84.565959,44.4086222 85.8053583,42.6888254 88.3648741,39.8064409 C90.9204842,36.9253583 92.805621,35.402147 94.0189825,35.2394107 M147.734965,28.0464683 C148.014871,28.0087135 148.171098,28.1063553 148.201042,28.3393936 C148.313004,29.1791127 146.994189,30.9457774 144.247202,33.6393879 C141.498912,36.3329983 139.611171,37.7494547 138.585282,37.8861531 C138.44598,37.9056815 138.369168,37.8692286 138.357451,37.7741906 C138.281941,37.2156798 139.522643,35.4945812 142.080857,32.6121967 C144.637769,29.7324159 146.521603,28.2092046 147.734965,28.0464683 M49.5386079,48.17499 C48.9267196,43.6040541 44.2529344,41.8569177 35.521158,42.9296751 C25.8220773,44.2289613 20.8696877,44.1091875 20.663989,42.5716553 C20.5338,41.5913322 21.2862925,40.3050648 22.9240701,38.7076457 C31.6844881,30.4146063 42.8286667,25.363273 56.3527003,23.5510421 C58.4031771,23.2776452 59.4707269,23.4429852 59.5514441,24.0483641 C59.7076709,25.2148575 58.4956113,26.4451436 55.9152652,27.7392223 C53.3362211,29.0346029 50.7532713,30.2115114 48.1651139,31.2686461 C45.5769565,32.3283846 44.3180289,33.1147262 44.3870291,33.6276709 C44.4430103,34.0507851 45.4623902,34.2018044 47.4113196,34.0924456 C47.6456598,34.5168618 48.3968503,34.7681265 49.6727026,34.8410324 C50.0450431,36.2145264 53.3336173,36.4879233 59.5358214,35.6560155 L63.9231908,34.9269571 C64.9022121,34.7954662 65.4099492,34.869674 65.4490059,35.1495803 C65.4854588,35.4294867 65.3162131,35.7614686 64.9412688,36.1429224 C60.9952401,40.7060469 57.9800628,45.0504539 55.8983407,49.1722378 C53.8166185,53.2966254 52.9092012,56.3625764 53.1786924,58.367487 C53.4468817,60.3723976 54.1355816,61.8943071 55.2486975,62.9319134 C56.3592097,63.966916 57.4866465,64.4108605 58.6297059,64.2585394 C59.7727654,64.1049163 60.747881,63.8549535 61.5550528,63.5112545 C63.7864923,62.451516 67.5216148,59.1499229 72.7617221,53.6077771 C73.8149512,52.5233027 74.9033312,51.359413 76.0203529,50.1291269 C75.7625787,51.3984697 75.6974842,52.6118312 75.8511072,53.7640039 C76.4382596,58.1474676 78.5264912,60.0990007 82.1171039,59.6186033 C85.1479038,59.2124136 88.8921396,57.3936733 93.3485091,54.1610803 C95.2128156,52.8097185 96.9534426,51.4414321 98.6185599,50.0640324 C98.1342568,51.619791 97.9558979,52.9060584 98.0912945,53.9189288 C98.3230309,55.645235 99.3710524,56.3808028 101.236661,56.1321418 C101.935776,56.0384058 102.788514,55.5918575 103.79878,54.792497 C104.806443,53.9931365 105.691728,53.1625307 106.454636,52.2993776 C107.217544,51.4388283 108.169225,50.3022783 109.309681,48.8910295 C110.448835,47.4810826 111.134931,46.7598356 111.369271,46.7285902 C111.649177,46.6921373 111.794989,46.719477 111.808008,46.813213 C111.821027,46.9069491 111.806706,46.9902701 111.771555,47.0670816 C111.732498,47.1438931 111.697347,47.2311197 111.6648,47.3300634 C111.629649,47.4303089 111.58929,47.5657055 111.54112,47.7388568 C111.49295,47.9107063 111.314591,48.5408211 111.009949,49.6252955 C110.704005,50.7110718 110.585533,51.5091304 110.654533,52.0233769 C110.985213,54.4930623 111.944706,55.6231028 113.529106,55.4108948 C114.508128,55.2807058 115.401224,55.041158 116.211,54.6961571 C118.715836,53.5517958 122.422317,50.3999201 127.333046,45.2327186 C128.129803,44.3969052 128.959107,43.5155256 129.807939,42.6055045 C129.487674,43.995923 129.400448,45.3186433 129.568391,46.5697596 C130.154242,50.9532233 132.241172,52.9047565 135.833086,52.424359 C138.863886,52.0194712 142.60682,50.199429 147.064492,46.968138 C151.520861,43.7368469 155.408305,40.4274425 158.729426,37.0412265 C161.256395,34.4634843 163.401909,32.1031577 165.175084,29.956341 C165.686726,30.3169645 166.489993,30.5890596 167.612222,30.7596071 C169.019565,30.9770228 170.11836,31.0304003 170.911211,30.9236453 C167.461203,34.2343516 165.254499,36.7964712 164.287195,38.610004 C163.317287,40.4248387 162.952757,42.2175413 163.192305,43.9907155 C163.628438,47.2545538 165.478424,48.6671044 168.742262,48.2309713 C170.840909,47.9510649 173.990181,45.855022 178.188776,41.9467481 C182.389975,38.0371724 186.100362,34.123691 189.327747,30.2023982 C192.551227,26.2811055 194.126514,24.0314395 194.047099,23.445589 C193.968985,22.8636442 193.76589,22.5941529 193.440418,22.6371153 C180.352518,34.7850511 172.548989,41.0276138 170.031133,41.3661052 C169.798095,41.3960486 169.67051,41.3413693 169.653585,41.2033689 C169.535113,40.3167818 170.054567,39.0604579 171.211948,37.4343973 C172.371932,35.8083367 173.642576,34.3085594 175.025184,32.9350654 C176.407791,31.5654771 177.828153,30.2115114 179.287572,28.8757723 C180.74699,27.541335 181.612747,26.7497859 181.89005,26.4985211 C182.164748,26.2485582 182.279315,25.9608405 182.235051,25.6327642 C182.192088,25.3072917 181.482558,24.4532519 180.111668,23.0693428 C179.743233,22.7881345 179.195137,22.6930966 178.472588,22.7907383 C177.748738,22.8883801 176.808773,23.2164563 175.648789,23.7736653 C174.490107,24.333478 173.572274,24.6576486 172.897895,24.747479 C172.219611,24.8386113 170.538871,24.4220065 167.85177,23.5002684 C165.164669,22.5785302 163.565948,22.1528122 163.053003,22.2205105 C161.700339,22.4027751 160.740846,22.6839833 160.174524,23.0693428 C159.610806,23.4547022 159.389484,24.1121567 159.515768,25.0443099 C159.532692,25.1849141 159.63424,25.4088391 159.817806,25.7173871 C160.369808,26.6391252 161.45949,27.5139953 163.089456,28.3393936 C160.566393,30.7661166 158.140972,33.0379147 155.814494,35.1521841 C155.643947,35.3318449 155.499437,35.5010906 155.375757,35.6573174 C152.045523,38.5370982 149.207403,40.7815566 146.875717,42.3659567 C143.002595,44.9970765 139.294812,46.5502313 135.751067,47.0241192 C135.166519,46.9134586 134.824122,46.4721179 134.71997,45.701399 C134.617121,44.931982 134.854065,43.8813567 135.43601,42.5443157 C136.016653,41.2098784 136.469711,40.5198767 136.796485,40.4756124 C137.121957,40.43265 137.388845,40.469103 137.594543,40.5823674 C138.06062,41.2333124 138.68032,41.5041055 139.449737,41.4025581 C140.217852,41.2997088 141.722837,40.492537 143.964691,38.9810427 C146.207848,37.4708502 148.294778,35.6013362 150.228084,33.3711985 C152.161391,31.1436647 153.024544,29.2598298 152.817544,27.7222977 C152.704279,26.8812768 152.111919,26.0845201 151.03786,25.3255182 C149.962499,24.5678182 148.866307,24.2631759 147.746682,24.4141952 C145.228827,24.7500828 142.46882,26.1287843 139.471869,28.5463941 C137.604959,30.0539828 135.956766,31.778987 134.481724,33.673237 C128.746899,38.9875521 123.337546,43.4907897 118.261477,47.1582139 C117.740721,47.5136299 117.373588,47.7050077 117.163983,47.7336493 C116.954379,47.760989 116.834605,47.6594416 116.80336,47.4251014 C116.604171,45.9331354 119.369385,41.5991435 125.101607,34.4231257 C127.011479,32.0315537 127.946237,30.6723805 127.90067,30.3456061 C127.795217,29.554057 126.623516,29.3066979 124.384265,29.6061326 C123.219074,29.7636613 122.57594,30.2753041 122.454864,31.1462685 C121.638579,32.4911209 119.694858,34.7212585 116.622397,37.8379832 C113.551239,40.9547079 110.808156,43.6001485 108.39315,45.7743048 C107.496148,46.5111746 106.859524,46.9056472 106.487183,46.9551191 C106.113541,47.0058928 105.905238,46.8678924 105.862276,46.541118 C105.818012,46.2156455 106.021107,45.5217381 106.472862,44.4659053 C106.924618,43.4074687 107.764337,42.0482956 108.990718,40.3896877 C109.721078,39.4002512 110.368117,38.5318906 110.950062,37.757266 C111.699951,36.8667733 112.396462,36.0062239 113.022671,35.1873351 C113.392408,34.7577114 113.546031,34.3098612 113.48354,33.8437846 C113.42105,33.377708 113.156766,33.0092731 112.694595,32.73848 C112.650331,32.7827442 112.574821,32.8543482 112.477179,32.9480843 C112.435519,32.9181408 112.402972,32.8829898 112.360009,32.8543482 C111.891329,32.5379889 111.399214,32.4130075 110.88627,32.4820077 C109.493247,32.7176497 107.394601,34.7785417 104.594235,38.6646834 C103.669893,39.9470451 102.841891,41.2176897 102.095908,42.4766174 C98.5742957,45.5425684 95.5929675,47.9054988 93.1597351,49.5588991 C89.2853103,52.1913207 85.5788294,53.7431736 82.0350848,54.2170616 C81.4505362,54.106401 81.1068372,53.6650602 81.002686,52.8969451 C80.9011386,52.1275281 81.1380826,51.0742991 81.7200274,49.7385599 C82.3006704,48.4028208 82.7537281,47.712819 83.0805025,47.6698567 C83.4072769,47.6268943 83.6728624,47.6620453 83.8785611,47.7766117 C84.3446377,48.4262548 84.9630355,48.6983498 85.7324525,48.5968024 C86.5018695,48.4939531 88.0068543,47.6867812 90.248709,46.173985 C92.4905636,44.6650945 94.5787952,42.7955804 96.5121019,40.5667447 C98.4441067,38.3392109 99.3072597,36.4540741 99.1002592,34.9152401 C98.9895986,34.075521 98.3946348,33.2774625 97.3205756,32.5184606 C96.2465163,31.7620625 95.149023,31.4574202 94.0306995,31.6071376 C91.5128442,31.9443271 88.7528373,33.3230286 85.7545846,35.7406384 C83.9827123,37.1714155 82.4087272,38.7987781 80.9896671,40.5797636 C74.6898213,46.4929481 68.1855787,52.1106036 61.4495997,57.4014846 C60.7400697,57.7803346 60.2128042,57.9951465 59.8638977,58.0407126 C59.5136893,58.0888825 59.2103489,58.0459202 58.9551784,57.9131274 C58.700008,57.7816365 58.558102,57.5993719 58.5268566,57.3663336 C58.332875,55.9212357 59.4368777,53.1846628 61.8427705,49.1605208 C64.2460595,45.1363787 66.8420282,41.3960486 69.6306766,37.935625 C72.4180232,34.4778051 74.2523862,32.6642723 75.1324639,32.5002341 C77.1243556,32.1383087 80.7761571,31.306401 86.0839628,30.0019072 C91.3904665,28.6974134 94.4902667,27.9136756 95.3820613,27.6519957 C96.2712522,27.3916177 96.6930646,27.0739565 96.6422909,26.6990122 C96.5732907,26.1873694 96.0030629,25.8358591 94.935513,25.647085 C92.6611112,24.6237995 89.2176121,24.4194027 84.60111,25.0378005 L81.0430446,25.5845943 C80.3881939,25.6731228 80.0418912,25.5546508 79.9976269,25.2265745 C79.9937212,24.8490264 80.0575138,24.2696854 80.1929104,23.492457 L81.6145743,20.8092617 C81.9048958,20.1531091 82.0350848,19.7091646 82.0025375,19.4761263 C81.9101034,18.7757095 81.0248181,18.5387655 79.34538,18.7639925 C77.6659419,18.9892194 76.7259773,19.3993148 76.5202787,19.9968823 L72.5560235,27.0765603 C68.9706184,27.836864 65.6273648,28.606281 62.5132439,29.3848113 C64.5754377,27.683241 65.5375344,26.2121053 65.3721944,24.9779135 C65.1534768,23.3466453 64.4478525,21.9809627 63.2566231,20.8834694 C62.0653937,19.7846742 60.7648056,19.0217667 59.3548587,18.5934449 C57.9449118,18.1651231 56.1951716,17.8643865 54.1082419,17.692537 C52.0200103,17.5232913 50.0658734,17.5584423 48.2484349,17.8005938 C43.1424222,18.6741621 38.480354,20.0112031 34.2609285,21.811717 C30.0375972,23.6096271 26.6956455,25.493462 24.2298658,27.4606178 C21.7640861,29.4290755 19.682364,31.4417975 17.988605,33.4948781 C16.2935442,35.5492605 15.1374659,37.2833781 14.52037,38.693325 C13.9019722,40.1058756 13.6363867,41.1382744 13.7236133,41.7918232 C14.0178405,43.984206 15.1153338,45.618078 17.0147913,46.6908354 C17.788114,47.156912 18.7996825,47.5201393 20.0442894,47.7805173 C21.2901981,48.0408953 22.6897299,48.221858 24.2467904,48.3221036 C25.802549,48.4223491 28.7721601,48.1775938 33.1556238,47.5904414 L40.2522263,46.3562496 C42.6763456,46.0307771 43.9587072,46.3835893 44.0954057,47.4081768 C44.3076138,48.9925769 42.8742329,50.8712042 39.7952629,53.0388511 C36.7136893,55.2077999 33.0957369,57.1645406 28.9401039,58.9077714 C24.7805653,60.652304 20.865782,62.1481756 17.1866408,63.4005938 C13.5101034,64.653012 11.205758,65.3391081 10.2723029,65.4653914 C9.3401496,65.589071 8.86365785,65.5838634 8.84543139,65.4419574 C8.82590304,65.3026552 9.43909325,64.9120882 10.6823982,64.2715583 C11.2591355,63.9578028 11.7824953,63.6258208 12.2576851,63.2769143 C12.7615166,62.7808942 13.0010644,62.4424028 12.9763284,62.2549306 C12.9620077,62.1624964 12.8409319,62.1299492 12.6078936,62.1624964 C12.3735534,62.1924399 12.0780243,62.2809684 11.7160989,62.4228744 C10.271001,63.3289899 6.83921887,64.4538229 1.41684691,65.7960715 C0.398768915,65.9809399 -0.0712133843,66.3754126 0.00950379718,66.9820933 C0.258164792,68.8463998 1.84647062,70.2485354 4.77181751,71.1845943 C7.69846628,72.1219551 10.3985862,72.4252955 12.8695735,72.0959173 C18.1318129,71.342123 23.6492229,69.7499115 29.424407,67.3153771 C35.1956855,64.8795409 40.102509,61.8982128 44.13967,58.367487 C48.175529,54.8354594 49.9760429,51.4388283 49.5386079,48.17499" id="Fill-4" fill="#2369E5"></path>
                <path d="M153.494006,68.0752904 C151.201377,70.4265037 148.628843,72.8011511 145.773798,75.1966288 C142.918753,77.5947102 140.883899,78.887487 139.673141,79.0762611 C139.484367,79.0905819 139.385423,79.0280911 139.375008,78.887487 C139.333348,78.3719386 140.175671,77.0791618 141.900675,75.0065528 C143.623075,72.9365477 145.906591,70.7506744 148.744711,68.4489328 C151.581529,66.149795 154.202234,64.6448101 156.600315,63.936582 C156.786485,63.9222612 156.885429,63.9613179 156.891939,64.055054 C156.919278,64.3831302 155.785332,65.7227751 153.494006,68.0752904 M161.479799,63.8701856 C161.444648,63.4249392 161.064496,62.9575607 160.343249,62.4719557 C159.619398,61.9876526 159.116869,61.7559162 158.836962,61.7767464 C158.555754,61.8001804 158.368282,61.8379352 158.279753,61.8913127 C157.643129,60.9982162 156.345145,60.4162713 154.388404,60.1467801 C151.134981,60.7808005 148.026067,62.184238 145.05906,64.3518849 C142.089449,66.5221356 139.712198,68.8082544 137.919495,71.2141472 C136.126793,73.6226438 134.697317,75.8358568 133.629768,77.8550882 C132.56352,79.8743196 132.066198,81.3649837 132.143009,82.3257786 C132.217217,83.2878753 132.640331,84.1614435 133.41105,84.9516907 C134.181769,85.7393342 135.199847,86.0843351 136.466586,85.9840895 C137.733325,85.883844 139.342461,85.0597476 141.2979,83.5131023 C143.252037,81.9677588 144.629436,80.7504916 145.434004,79.8613007 C146.235969,78.9721099 146.853065,78.2742968 147.285292,77.7665597 C147.71752,77.2627283 148.003935,77.0023503 148.145841,76.9919351 C148.191408,76.9880295 148.050803,77.3069925 147.724029,77.9449186 C147.602953,78.1922777 147.4975,78.3641272 147.411575,78.4656746 C147.324349,78.568524 147.261858,78.6661657 147.222801,78.7638075 L145.932628,80.3521133 C143.610057,83.2253846 141.633787,85.9762782 140.001217,88.6073979 C139.079479,90.0954582 136.542096,93.5519762 132.395576,98.976952 C128.600566,103.524454 125.640069,106.682839 123.515384,108.456013 C122.624891,109.138204 122.040343,109.491016 121.757832,109.51445 C121.476624,109.536582 121.328209,109.453261 121.313888,109.267091 C121.207133,107.906616 122.679571,105.489006 125.732503,102.015563 C128.785435,98.5408188 132.219821,95.2626597 136.034358,92.1771804 C136.477001,91.8100474 136.694417,91.5574807 136.6827,91.4181785 C136.670983,91.2762725 136.478303,91.2202912 136.103359,91.2515366 C133.616749,91.4468201 129.976664,93.5858254 125.177898,97.6698544 C120.379131,101.752582 118.086503,105.15442 118.302616,107.87537 C118.471862,110.032602 119.527695,111.43604 121.464907,112.085683 C122.484287,112.430683 123.485441,112.563476 124.470971,112.485363 C126.732354,111.834418 129.048417,110.531226 131.417856,108.574485 C133.788598,106.617745 135.789603,104.619343 137.422173,102.580584 C139.053441,100.540522 140.65737,98.2765351 142.232657,95.7938309 C143.80534,93.3098247 144.837739,91.5887261 145.328551,90.6279313 C145.818062,89.6710421 146.676008,88.1256986 147.899784,86.002316 C149.124863,83.8763296 151.517737,79.9719614 155.08101,74.2853058 C158.642981,68.599952 160.608835,65.5548313 160.978571,65.1486416 C161.347006,64.74115 161.51495,64.315432 161.479799,63.8701856" id="Fill-6" fill="#2369E5"></path>
                <path d="M218.496854,54.2376315 C216.31098,56.5029201 214.390693,58.7213407 212.719066,60.8954971 C205.967464,66.5977754 199.017975,71.9849963 191.845863,77.0115937 C191.116805,77.3526889 190.577822,77.5362554 190.226312,77.5648969 C189.874802,77.5922366 189.574065,77.5349535 189.328008,77.3878399 C189.078045,77.2433301 188.946554,77.0519523 188.928328,76.8176121 C188.813761,75.3647028 190.064878,72.6932245 192.68428,68.804479 C195.303683,64.9170353 198.098841,61.322517 201.071056,58.019622 C203.146268,55.7152767 204.700725,54.2050842 205.760464,53.4512899 C207.398241,53.7129698 209.847096,53.7168755 213.126557,53.4564975 L217.547776,52.9669868 C218.532005,52.8901753 219.035836,52.9917227 219.057968,53.272931 C219.0801,53.5554411 218.89393,53.8770079 218.496854,54.2376315 M176.853298,65.241206 C175.995352,67.2435128 175.169954,68.2759116 174.371895,68.3384023 C174.231291,68.3501193 174.00346,68.1548358 173.689705,67.7564575 C173.374647,67.3554754 173.211911,67.0846822 173.200194,66.94538 C173.15593,66.3816616 173.814686,65.3154137 175.179067,63.7453343 C176.539542,62.175255 177.456073,61.3706869 177.924753,61.3329321 C178.018489,61.3251208 178.078376,61.47614 178.10181,61.7794804 C178.126546,62.0854245 177.709941,63.2388991 176.853298,65.241206 M169.414298,76.3762713 C167.365123,78.5191823 165.589345,79.6518266 164.089568,79.7689967 C163.853926,79.7872232 163.723737,79.6088643 163.692491,79.2339199 C163.605265,78.1077851 164.333021,75.9739873 165.877063,72.8312248 C166.863895,70.9617107 168.027785,69.288782 169.375241,67.8137215 C169.422109,67.809835 169.811374,68.4047987 170.543037,69.59733 C171.274699,70.7898612 171.938663,71.5996368 172.538834,72.0227511 C172.504985,72.781753 171.462171,74.2307566 169.414298,76.3762713 M249.017062,45.3860812 C246.802547,44.240418 243.373368,43.849851 238.730829,44.216984 L235.148027,44.5697962 C234.490573,44.6205699 234.150779,44.4838714 234.124742,44.1557951 C234.141666,43.7769451 234.238006,43.2028116 234.413761,42.4346965 L235.978633,39.8322184 C236.305407,39.1929904 236.45903,38.7555553 236.440804,38.5212151 C236.384823,37.8181945 235.512556,37.5330806 233.824005,37.6658734 C232.136756,37.7986661 231.173357,38.1579878 230.937715,38.7438383 L226.593308,45.5995912 C225.559607,45.7597236 224.551944,45.9237618 223.5573,46.0877999 C221.681277,45.7922709 219.410781,45.7414972 216.719774,45.9537052 L213.136973,46.3078193 C212.479518,46.358593 212.139725,46.2218946 212.113687,45.8925164 C212.12931,45.5149683 212.226951,44.9395329 212.401405,44.1714178 L213.967578,41.5702415 C214.293051,40.9310135 214.447976,40.4935785 214.429749,40.2592383 C214.373768,39.5562177 213.501502,39.2698019 211.81295,39.4025946 C210.125701,39.5366893 209.162302,39.896011 208.925358,40.4818615 L204.582253,47.3363125 C198.428219,48.2958054 192.951168,49.3164872 188.152401,50.4035654 C183.354936,51.4906435 180.791515,52.0699846 180.467344,52.1428904 C180.143174,52.2144944 179.910135,52.2691738 179.773437,52.3030229 C179.632833,52.3381739 179.471398,52.373325 179.28653,52.4136835 C179.10036,52.4514384 179.014435,52.5647028 179.030058,52.7508731 C179.074322,53.3145914 179.834626,53.6778188 181.310969,53.8457626 C181.6078,55.237483 184.876846,55.687937 191.115503,55.1945206 L195.535419,54.70501 C196.52095,54.6268966 197.024782,54.728444 197.045612,55.0109541 C197.069046,55.2921624 196.881574,55.6137292 196.485799,55.9756547 C193.947114,58.6080763 191.758636,61.1793091 189.911254,63.6880512 C188.360703,64.9521864 186.643511,66.2293405 184.749261,67.5195135 C182.084292,69.3356501 180.095004,70.2938411 178.781397,70.3979923 C181.133912,66.1056609 182.205367,62.647841 181.998367,60.020627 C181.928065,59.1301342 181.491932,58.4088871 180.695175,57.8581876 C180.083287,57.2944693 179.522172,57.0432045 179.007926,57.1069971 C178.492377,57.1720916 178.091395,57.3205071 177.803677,57.5561491 C177.514658,57.7904894 177.276412,57.9050557 177.086336,57.8959424 C176.897562,57.8881311 176.677542,57.7865837 176.42758,57.5926021 C176.173711,57.4025261 175.814389,57.3231108 175.345709,57.3595638 C170.110809,59.8019094 165.880968,63.3105031 162.654885,67.8827408 C159.431405,72.4562805 157.939439,76.2890447 158.182893,79.3849392 C158.268817,80.4655079 158.527894,81.340378 158.957517,82.014757 C159.725632,83.3700246 161.39075,84.1342265 163.952869,84.3099892 C167.750482,84.0105544 172.057135,80.5800742 176.872826,74.0159447 C177.444356,74.0667184 177.870074,74.0797373 178.151282,74.0576052 C180.218683,73.894869 182.71701,72.7179604 185.641055,70.5451059 C184.11524,73.5368492 183.403106,75.8724399 183.533295,77.5271421 C183.692126,79.5424679 184.297505,81.1008302 185.352036,82.1970216 C186.406567,83.2919112 187.507966,83.7957426 188.657534,83.7059122 C189.805801,83.6147799 190.793936,83.4181945 191.619334,83.1187598 C193.904151,82.181399 197.813727,79.0894102 203.34676,73.8401896 C204.478102,72.79347 205.651105,71.668637 206.856655,70.4748039 C205.884143,72.6776018 205.440199,74.4559836 205.54435,75.7891189 C205.70318,77.8070485 206.309861,79.3641089 207.36309,80.4589985 C208.417621,81.5551899 209.51902,82.0590213 210.668589,81.967889 C211.816856,81.8767567 212.804991,81.6801713 213.631691,81.3807366 C215.91781,80.4446777 219.826083,77.351387 225.359116,72.1021664 C227.423914,70.1922937 229.613693,68.0389676 231.925849,65.6369805 C234.238006,63.2362953 235.818501,61.5776874 236.666031,60.6611569 C237.513561,59.7433244 238.155393,59.0455113 238.588923,58.5625101 C239.022452,58.0795089 239.220339,57.605621 239.185188,57.1356387 C239.146131,56.6669583 238.905282,56.2842026 238.45613,55.9899754 C230.552355,62.8899926 222.353052,69.3200274 213.85822,75.2735705 C213.127859,75.6146657 212.588877,75.7995341 212.237367,75.8281756 C211.885856,75.8542134 211.58512,75.7969303 211.339062,75.6498167 C211.090401,75.5053069 210.958911,75.3139291 210.939382,75.0795889 C210.824816,73.6279815 212.075932,70.9552013 214.695335,67.0664558 C217.314738,63.1790122 220.109896,59.5844938 223.08211,56.2815988 C226.055627,52.9800057 227.985028,51.2706241 228.872917,51.153454 C230.880432,50.9008873 234.572592,50.2668669 239.942888,49.2526946 C245.313184,48.2398241 248.450739,47.6266339 249.354251,47.413124 C250.257763,47.2009159 250.693896,46.9066887 250.665254,46.5304425 C250.624896,46.016196 250.074196,45.6347422 249.017062,45.3860812" id="Fill-8" fill="#2369E5"></path>
                <path d="M122.261273,75.52809 C122.144103,74.888862 117.413035,74.5191252 108.070672,74.4162759 C98.7257055,74.3121247 91.4689705,74.5126158 86.301769,75.0138434 C81.1319637,75.516373 75.5820065,76.1529972 69.6518974,76.9237161 C64.4638657,77.5980951 61.5554434,78.0264169 60.9201211,78.2099834 C62.223313,77.5915857 62.8690504,77.2023206 62.8404088,77.0473956 C62.8130691,76.8885651 62.104841,76.8755462 60.71963,77.0096408 C59.3331171,77.1437355 56.7592805,77.5889819 52.9929127,78.3466819 C51.640249,78.6721544 49.8657729,79.0405893 47.661673,79.4506846 C37.0017975,81.6586901 31.764294,83.2756375 31.9504642,84.2989231 C32.343635,86.4756832 36.4823434,87.1800057 44.3704951,86.4131925 C47.5666351,86.1046445 56.2033735,84.8418112 70.2768047,82.6272963 C84.3541415,80.4153851 99.7359721,78.3987575 116.434014,76.5839228 L118.990926,76.3352618 C121.228875,76.1178462 122.319858,75.8496568 122.261273,75.52809" id="Fill-10" fill="#2369E5"></path>
            </g>
        </g>
    </g>
</svg>